<?xml version="1.0" ?><!DOCTYPE svg  PUBLIC '-//W3C//DTD SVG 1.1//EN'  'http://www.w3.org/Graphics/SVG/1.1/DTD/svg11.dtd'><svg enable-background="new 0 0 128 128" height="128px" version="1.1" viewBox="0 0 128 128" width="128px" xml:space="preserve" xmlns="http://www.w3.org/2000/svg" xmlns:xlink="http://www.w3.org/1999/xlink"><g id="Layer_2"/><g id="Layer_1"><path d="M70,87c0,3.313-3.187,6-6.5,6S57,90.313,57,87C61.462,87,65.338,87,70,87z" fill="#F7BC31"/><path d="M82,72V55c0-10.271-8.283-19-18.5-19S45,44.729,45,55v17c-0.208,2.084-1.625,5.104-6,6v9h49v-9   C83.625,77.104,82.208,74.084,82,72z" fill="#FFCF47"/><circle cx="85" cy="81" fill="#40D0AD" r="16"/><path d="M92,80h-5v-5c0-0.828-0.671-1.5-1.5-1.5S84,74.172,84,75v5h-5c-0.829,0-1.5,0.672-1.5,1.5S78.171,83,79,83   h5v5c0,0.828,0.671,1.5,1.5,1.5S87,88.828,87,88v-5h5c0.829,0,1.5-0.672,1.5-1.5S92.829,80,92,80z" fill="#FFFFFF"/></g></svg>