<?xml version="1.0" ?><!DOCTYPE svg  PUBLIC '-//W3C//DTD SVG 1.1//EN'  'http://www.w3.org/Graphics/SVG/1.1/DTD/svg11.dtd'><svg enable-background="new 0 0 128 128" height="128px" version="1.1" viewBox="0 0 128 128" width="128px" xml:space="preserve" xmlns="http://www.w3.org/2000/svg" xmlns:xlink="http://www.w3.org/1999/xlink"><g id="Layer_2"/><g id="Layer_1"><path d="M70,87c0,3.313-3.187,6-6.5,6S57,90.313,57,87C61.462,87,65.338,87,70,87z" fill="#F7BC31"/><path d="M82,72V55c0-10.271-8.283-19-18.5-19S45,44.729,45,55v17c-0.208,2.084-1.625,5.104-6,6v9h49v-9   C83.625,77.104,82.208,74.084,82,72z" fill="#FFCF47"/><circle cx="85" cy="81" fill="#40D0AD" r="16"/><g><path d="M83.583,88.917c-0.396,0-0.778-0.157-1.061-0.439l-5.167-5.167c-0.586-0.586-0.586-1.535,0-2.121    s1.535-0.586,2.121,0l3.897,3.897l6.894-9.94c0.472-0.682,1.406-0.85,2.087-0.378c0.681,0.472,0.85,1.406,0.377,2.087    l-7.917,11.416c-0.253,0.365-0.656,0.6-1.098,0.64C83.672,88.915,83.627,88.917,83.583,88.917z" fill="#FFFFFF"/></g></g></svg>