<?xml version="1.0" standalone="no"?>
<!DOCTYPE svg PUBLIC "-//W3C//DTD SVG 20010904//EN"
 "http://www.w3.org/TR/2001/REC-SVG-20010904/DTD/svg10.dtd">
<svg version="1.0" xmlns="http://www.w3.org/2000/svg"
 width="512.000000pt" height="512.000000pt" viewBox="0 0 512.000000 512.000000"
 preserveAspectRatio="xMidYMid meet">

<g transform="translate(0.000000,512.000000) scale(0.100000,-0.100000)"
fill="#000000" stroke="none">
<path d="M2455 5106 c-84 -21 -147 -57 -211 -121 -103 -103 -134 -195 -134
-403 l0 -127 -78 -29 c-470 -174 -829 -559 -963 -1036 -44 -156 -50 -215 -59
-605 -9 -409 -17 -493 -71 -715 -62 -253 -175 -510 -322 -732 -64 -97 -122
-171 -271 -343 -60 -70 -38 -183 44 -225 39 -20 54 -20 2170 -20 2116 0 2131
0 2170 20 26 13 47 34 60 60 38 74 23 127 -59 215 -255 273 -458 650 -550
1025 -54 220 -62 305 -71 715 -9 391 -14 447 -59 606 -133 475 -509 876 -973
1040 l-68 24 0 127 c0 207 -31 300 -135 404 -112 113 -269 158 -420 120z m175
-306 c60 -31 80 -78 80 -192 l0 -93 -150 0 -150 0 0 95 c1 112 16 150 76 186
48 29 92 30 144 4z"/>
<path d="M996 4581 c-32 -22 -154 -154 -221 -241 -251 -326 -417 -749 -454
-1160 -16 -174 -14 -234 9 -280 23 -45 80 -80 130 -80 88 0 150 74 150 179 0
89 18 254 41 366 63 312 228 645 435 878 128 143 134 153 134 211 0 57 -21 97
-66 127 -39 26 -119 25 -158 0z"/>
<path d="M3966 4581 c-45 -30 -66 -70 -66 -128 0 -57 2 -60 138 -215 206 -234
369 -564 431 -873 23 -112 41 -277 41 -366 0 -105 62 -179 150 -179 50 0 107
35 130 80 23 45 25 107 10 275 -39 420 -210 853 -464 1175 -79 100 -173 203
-208 228 -42 29 -120 30 -162 3z"/>
<path d="M1880 438 c0 -28 95 -159 162 -224 134 -130 284 -197 468 -210 221
-16 432 66 587 229 65 68 143 181 143 206 0 8 -185 11 -680 11 -511 0 -680 -3
-680 -12z"/>
</g>
</svg>
