<svg width="24" height="24" viewBox="0 0 24 24" xmlns="http://www.w3.org/2000/svg" xmlns:xlink="http://www.w3.org/1999/xlink">
    <defs>
        <path id="67c20d2fra" d="M0 0h2.703v11.4H0z"/>
    </defs>
    <g fill="none" fill-rule="evenodd">
        <g transform="translate(10.932)">
            <mask id="k894tdf3yb" fill="#fff">
                <use xlink:href="#67c20d2fra"/>
            </mask>
            <path d="M.009 10.122a1.339 1.339 0 0 0 1.71 1.225c.605-.173.982-.683.982-1.334l.002-7.063-.001-1.57-.003-.11A1.338 1.338 0 0 0 1.766.066a1.33 1.33 0 0 0-1.2.184 1.39 1.39 0 0 0-.562 1.135C.001 2.318.002 3.25.002 4.183V9.278c-.002.28-.005.563.007.844" fill="#FFF" mask="url(#k894tdf3yb)"/>
        </g>
        <path d="M18.442.962A1.158 1.158 0 0 0 17.246.92a1.141 1.141 0 0 0-.601 1.015c0 .394.207.762.553.983a9.648 9.648 0 0 1 4.414 9.287c-.505 4.42-4.081 7.986-8.502 8.48-2.788.314-5.475-.54-7.555-2.4a9.693 9.693 0 0 1-3.233-7.214c0-3.311 1.674-6.358 4.479-8.153a1.17 1.17 0 0 0 .553-.985 1.14 1.14 0 0 0-.6-1.013 1.16 1.16 0 0 0-1.198.042A11.972 11.972 0 0 0 .063 12.32c.566 5.563 5.007 10.053 10.56 10.675.47.052.934.078 1.397.078 2.95 0 5.74-1.06 7.971-3.056A12.017 12.017 0 0 0 24 11.072c0-4.108-2.077-7.887-5.558-10.11" fill="#FFF"/>
    </g>
</svg>
