<svg width="16" height="16" viewBox="0 0 16 16" xmlns="http://www.w3.org/2000/svg" xmlns:xlink="http://www.w3.org/1999/xlink">
    <defs>
        <path id="ak412t7cpa" d="M0 0h16v16H0z"/>
    </defs>
    <g fill="none" fill-rule="evenodd">
        <mask id="9pqsk87hpb" fill="#fff">
            <use xlink:href="#ak412t7cpa"/>
        </mask>
        <path d="M3.018 3.016c.007.434.33.761.753.761h.001c.423 0 .744-.327.748-.762a21.52 21.52 0 0 0 0-.36v-.029h6.959v.373c.003.452.317.778.748.778.433 0 .75-.326.755-.776V2.605l.2.002c.258.003.502.006.737.049.323.06.535.287.553.596.024.42.019.833.014 1.272-.002.136-.004.273-.004.41H1.505l-.003-.386c-.004-.387-.007-.787.005-1.178.015-.442.355-.752.828-.755.182-.002.365-.002.554-.001h.128v.037l.001.365zm11.48 3.39v7.275c0 .462-.241.773-.662.855-.068.013-.14.013-.208.013H2.372c-.527 0-.869-.322-.87-.821-.002-1.893-.001-3.787 0-5.68V6.406h12.996zM16 3.48c0-1.024-.558-1.834-1.494-2.167-.264-.094-.55-.123-.798-.143-.201-.016-.397-.012-.604-.009l-.124.002c-.001-.092-.003-.18.004-.269.03-.435-.166-.742-.568-.886L12.076 0l-.066.015c-.208.102-.418.223-.49.482-.03.112-.034.223-.04.349a6.87 6.87 0 0 0-.002.31h-6.96a1.891 1.891 0 0 1 .004-.23C4.566.489 4.38.172 3.98.011L3.636 0l-.051.009c-.404.144-.6.451-.569.886.006.086.005.171.003.264v.005l-.068.001c-.112.005-.225.005-.338.006-.262.001-.532.002-.794.053A2.213 2.213 0 0 0 .007 3.256c-.006.1-.007.2-.007.3v10.129c0 .95.438 1.653 1.302 2.088.297.15.624.225.973.225h2.11C5.808 16 7.232 16 8.656 16c1.69 0 3.379-.001 5.067-.003 1.184-.001 2.179-.905 2.266-2.057.006-.084.01-.17.01-.255V3.48z" fill="#FFF" mask="url(#9pqsk87hpb)"/>
    </g>
</svg>
