<svg width="24" height="24" viewBox="0 0 24 24" xmlns="http://www.w3.org/2000/svg">
    <defs>
        <linearGradient x1="11.824%" y1="28.32%" x2="80.667%" y2="75.243%" id="8mfg85pola">
            <stop stop-color="#FFF" offset="0%"/>
            <stop stop-color="#FFF" offset="100%"/>
        </linearGradient>
    </defs>
    <g fill="none" fill-rule="evenodd">
        <path d="M22.646 12.014c-.007 5.864-4.784 10.634-10.649 10.633h-.004c-2.84 0-5.512-1.113-7.527-3.131a10.582 10.582 0 0 1-3.118-7.534C1.354 6.119 6.13 1.349 11.998 1.349H12c2.84 0 5.513 1.113 7.527 3.13a10.576 10.576 0 0 1 3.118 7.535m1.126-2.262c-.596-3.175-2.269-5.74-4.97-7.62C16.292.387 13.459-.29 10.378.114c-2.36.311-4.47 1.275-6.272 2.864C2.002 4.832.684 7.163.186 9.907c-.054.303-.093.611-.13.911l-.055.422-.001.007v1.51c.02.139.038.278.055.418.038.3.077.61.132.914.49 2.71 1.785 5.02 3.845 6.866 1.787 1.599 3.918 2.585 6.337 2.93.202.03.405.054.608.077l.278.033 1.507-.002.071-.015c.05-.009.097-.02.146-.026.137-.018.273-.034.41-.05.282-.032.574-.066.86-.123 3.011-.598 5.462-2.12 7.284-4.526 2.14-2.825 2.892-6.02 2.24-9.5" fill="#FFF"/>
        <path d="m16.302 8.417-1.157.918-3.056 2.429c-.094.073-.093.074-.15.029-1.208-.967-2.42-1.93-3.632-2.892l-.69-.55h8.767a4.298 4.298 0 0 1-.082.066m1.401.645v6.286c0 .318 0 .318-.327.318H6.616c-.326 0-.326 0-.326-.319V9.024l.21.167c.267.21.518.408.768.607l4.194 3.33c.405.324.666.323 1.071.002l5.138-4.08.032-.024v.036m-.278-2.073H6.568c-1.032 0-1.625.592-1.625 1.623-.002 2.257-.002 4.515 0 6.772 0 1.035.593 1.628 1.626 1.63l5.429.001c1.809 0 3.618 0 5.427-.002 1.033 0 1.626-.594 1.627-1.629.001-2.257.002-4.515 0-6.773 0-1.031-.594-1.622-1.627-1.622" fill="url(#8mfg85pola)"/>
    </g>
</svg>
