<svg width="24" height="21" viewBox="0 0 24 21" xmlns="http://www.w3.org/2000/svg" xmlns:xlink="http://www.w3.org/1999/xlink">
    <defs>
        <path id="djs647og7a" d="M0 0h24v21H0z"/>
    </defs>
    <g fill="none" fill-rule="evenodd">
        <mask id="b05o76f8sb" fill="#fff">
            <use xlink:href="#djs647og7a"/>
        </mask>
        <path d="M20.873 10.672c-.984 1.46-2.258 2.644-3.374 3.61a436.012 436.012 0 0 1-3.913 3.329l-1.581 1.336-.372-.312c-.403-.34-.804-.674-1.2-1.014l-1.188-1.017C8.07 15.602 6.898 14.6 5.743 13.576c-1.087-.96-1.939-1.913-2.606-2.91-1.18-1.762-1.44-3.553-.797-5.476.657-1.963 2.453-3.24 4.518-3.24.081 0 .162 0 .244.005 1.128.055 2.121.525 2.953 1.399.342.358.643.771.892 1.127.288.41.665.634 1.064.634h.013c.401-.005.773-.236 1.048-.65l.145-.22c.631-.906 1.284-1.496 2.053-1.857 1.439-.676 2.882-.606 4.289.208 1.39.802 2.178 2.069 2.408 3.873.187 1.46-.17 2.835-1.094 4.203zm3.122-4.067-.015-.079c-.009-.046-.018-.09-.023-.138-.136-1.315-.57-2.511-1.294-3.554C21.134.63 18.336-.44 15.701.17c-1.415.329-2.613 1.1-3.662 2.361l-.031.039-.039-.048C10.225.463 8.074-.34 5.576.131 3.14.59 1.39 2.087.51 4.456c-.916 2.466-.597 4.903.95 7.245.773 1.173 1.735 2.255 2.94 3.308a520.97 520.97 0 0 0 5.52 4.737l.943.8c.355.303.741.454 1.133.454.406 0 .819-.164 1.207-.491l.39-.33c1.53-1.29 3.062-2.582 4.586-3.882 1.354-1.156 2.766-2.435 3.921-3.952.837-1.1 1.375-2.162 1.645-3.25.077-.31.129-.624.18-.94L24 7.712l-.005-1.107z" fill="#FFF" mask="url(#b05o76f8sb)"/>
    </g>
</svg>
