<?xml version="1.0" standalone="no"?>
<!DOCTYPE svg PUBLIC "-//W3C//DTD SVG 20010904//EN"
 "http://www.w3.org/TR/2001/REC-SVG-20010904/DTD/svg10.dtd">
<svg version="1.0" xmlns="http://www.w3.org/2000/svg"
 width="64.000000pt" height="64.000000pt" viewBox="0 0 64.000000 64.000000"
 preserveAspectRatio="xMidYMid meet">

<g transform="translate(0.000000,64.000000) scale(0.100000,-0.100000)"
fill="#000000" stroke="none">
<path d="M110 579 c-60 -34 -85 -82 -85 -158 0 -55 6 -76 34 -128 48 -89 217
-253 261 -253 44 0 213 164 262 254 27 51 33 72 33 127 0 54 -5 72 -25 102
-30 44 -86 77 -131 77 -37 0 -94 -30 -121 -63 l-18 -22 -17 22 c-50 61 -131
78 -193 42z"/>
</g>
</svg>
