<svg width="24" height="21" viewBox="0 0 24 21" xmlns="http://www.w3.org/2000/svg">
    <path d="m23.995 6.605-.015-.079c-.009-.046-.018-.09-.023-.138-.136-1.315-.57-2.511-1.294-3.554C21.134.63 18.336-.44 15.701.17c-1.415.329-2.613 1.1-3.662 2.361l-.031.039-.039-.048C10.225.463 8.074-.34 5.576.131 3.14.59 1.39 2.087.51 4.456c-.916 2.466-.597 4.903.95 7.245.773 1.173 1.735 2.255 2.94 3.308a520.97 520.97 0 0 0 5.52 4.737l.943.8c.355.303.741.454 1.133.454.406 0 .819-.164 1.207-.491l.39-.33c1.53-1.29 3.062-2.582 4.586-3.882 1.354-1.156 2.766-2.435 3.921-3.952.837-1.1 1.375-2.162 1.645-3.25.077-.31.129-.624.18-.94L24 7.712l-.005-1.107z" fill="#FA526F" fill-rule="evenodd"/>
</svg>
