<?xml version="1.0" standalone="no"?>
<!DOCTYPE svg PUBLIC "-//W3C//DTD SVG 20010904//EN"
 "http://www.w3.org/TR/2001/REC-SVG-20010904/DTD/svg10.dtd">
<svg version="1.0" xmlns="http://www.w3.org/2000/svg"
 width="512.000000pt" height="512.000000pt" viewBox="0 0 512.000000 512.000000"
 preserveAspectRatio="xMidYMid meet">

<g transform="translate(0.000000,512.000000) scale(0.100000,-0.100000)"
fill="#000000" stroke="none">
<path d="M310 5104 c-145 -39 -257 -153 -295 -300 -14 -54 -15 -302 -13 -2270
l3 -2209 23 -55 c46 -113 129 -196 242 -242 l55 -23 1650 0 1650 0 66 24 c65
23 68 23 108 7 53 -21 154 -20 207 2 68 28 973 554 1014 589 21 19 51 59 67
91 l28 57 0 605 0 605 -27 55 c-15 30 -42 69 -60 87 -18 17 -143 95 -277 172
-135 78 -249 145 -253 149 -5 5 107 256 248 558 332 710 342 733 353 801 11
74 -2 171 -34 240 -26 58 -101 144 -155 178 -19 12 -240 117 -491 234 l-456
213 -6 62 c-15 163 -114 295 -267 358 l-55 23 -1635 2 c-1416 2 -1642 0 -1690
-13z m3362 -137 c64 -32 111 -80 142 -146 21 -46 21 -53 24 -1067 l2 -1021
-30 -7 c-17 -3 -77 -33 -134 -66 -57 -33 -106 -60 -109 -60 -4 0 -7 363 -7
808 0 762 -1 809 -19 847 -22 48 -44 69 -94 90 -32 13 -202 15 -1469 15 -1369
0 -1435 -1 -1473 -19 -48 -22 -69 -44 -90 -94 -13 -32 -15 -178 -15 -1227 0
-1049 2 -1195 15 -1227 21 -50 42 -72 90 -94 38 -18 93 -19 1108 -19 l1067 0
0 -200 0 -200 -1120 0 c-1107 0 -1120 0 -1140 -20 -25 -25 -25 -55 0 -80 20
-20 33 -20 1140 -20 l1120 0 0 -180 0 -180 -1120 0 c-1107 0 -1120 0 -1140
-20 -25 -25 -25 -55 0 -80 20 -20 33 -20 1164 -20 l1144 0 38 -38 c41 -40 49
-45 538 -327 228 -132 304 -180 293 -187 -9 -4 -740 -7 -1634 -6 l-1618 3 -57
28 c-64 32 -111 80 -142 146 l-21 46 -3 2185 c-2 1560 0 2200 8 2236 22 101
93 181 193 216 49 17 137 17 1672 15 l1620 -2 57 -28z m791 -661 c197 -91 375
-178 397 -192 108 -72 155 -238 101 -360 -104 -234 -577 -1234 -585 -1234 -5
0 -88 45 -183 100 -95 55 -187 103 -203 107 l-30 6 0 903 0 903 73 -33 c39
-18 233 -108 430 -200z m-1043 -86 c20 -20 20 -33 20 -858 l0 -838 -312 -180
c-211 -121 -327 -194 -359 -225 -62 -61 -89 -133 -89 -239 l0 -80 -1060 0
c-1047 0 -1060 0 -1080 20 -20 20 -20 33 -20 1200 0 1167 0 1180 20 1200 20
20 33 20 1440 20 1407 0 1420 0 1440 -20z m1010 -1874 c256 -148 480 -280 499
-294 18 -13 42 -43 52 -66 17 -38 19 -76 19 -606 0 -530 -2 -568 -19 -606 -10
-23 -34 -53 -52 -66 -19 -14 -243 -146 -499 -294 l-465 -269 -65 0 -65 0 -465
269 c-256 148 -480 280 -499 294 -18 13 -42 43 -52 66 -17 38 -19 76 -19 606
0 527 2 568 19 605 10 22 27 48 37 57 10 9 159 97 329 196 171 98 384 221 475
274 91 52 172 98 180 101 8 4 40 5 70 4 52 -3 83 -19 520 -271z"/>
<path d="M420 4700 c-11 -11 -20 -29 -20 -40 0 -11 9 -29 20 -40 19 -19 33
-20 500 -20 467 0 481 1 500 20 11 11 20 29 20 40 0 11 -9 29 -20 40 -19 19
-33 20 -500 20 -467 0 -481 -1 -500 -20z"/>
<path d="M1905 3921 c-22 -10 -47 -27 -56 -37 -9 -10 -110 -181 -225 -379
-181 -314 -208 -366 -212 -411 -4 -54 18 -113 54 -145 11 -9 116 -72 234 -140
214 -123 215 -123 280 -124 l65 0 215 124 c118 68 223 131 234 140 36 32 58
91 54 145 -4 45 -31 97 -212 411 -115 198 -216 369 -225 379 -23 27 -90 56
-131 56 -19 0 -53 -9 -75 -19z m113 -118 c32 -30 412 -698 412 -727 0 -31 -6
-34 -252 -175 -98 -56 -186 -101 -196 -101 -17 0 -405 214 -439 241 -7 6 -13
22 -13 36 0 24 380 693 413 725 22 23 49 23 75 1z"/>
<path d="M1439 2781 c-34 -34 -39 -82 -12 -121 9 -14 111 -139 227 -279 222
-268 247 -291 326 -291 80 0 105 23 326 291 115 140 217 265 227 279 43 62 -3
150 -79 150 -30 0 -75 -24 -244 -130 -113 -71 -217 -130 -229 -130 -13 0 -117
59 -231 130 -234 147 -257 154 -311 101z m416 -308 c60 -37 76 -43 125 -43 54
0 64 4 208 94 84 52 152 93 152 90 0 -2 -75 -94 -166 -204 -145 -175 -169
-200 -194 -200 -25 0 -49 25 -194 200 -91 110 -166 202 -166 205 0 3 37 -18
83 -47 45 -28 113 -71 152 -95z"/>
<path d="M3080 1720 c-19 -19 -20 -33 -20 -340 0 -307 1 -321 20 -340 24 -24
49 -25 76 -6 17 13 19 31 24 217 l5 203 119 -198 c65 -109 127 -207 137 -217
25 -25 54 -24 79 1 19 19 20 33 20 340 0 307 -1 321 -20 340 -11 11 -29 20
-40 20 -11 0 -29 -9 -40 -20 -19 -19 -20 -33 -20 -222 l0 -203 -126 210 c-69
116 -133 216 -142 223 -23 18 -49 15 -72 -8z"/>
<path d="M3680 1720 c-19 -19 -20 -33 -20 -340 0 -307 1 -321 20 -340 11 -11
29 -20 40 -20 11 0 29 9 40 20 18 18 20 33 20 140 l0 120 140 0 c127 0 142 2
160 20 11 11 20 29 20 40 0 11 -9 29 -20 40 -18 18 -33 20 -160 20 l-140 0 0
100 0 100 160 0 c147 0 162 2 180 20 11 11 20 29 20 40 0 11 -9 29 -20 40 -19
19 -33 20 -220 20 -187 0 -201 -1 -220 -20z"/>
<path d="M4280 1720 c-11 -11 -20 -29 -20 -40 0 -41 34 -60 110 -60 l70 0 0
-280 c0 -267 1 -281 20 -300 25 -25 55 -25 80 0 19 19 20 33 20 300 l0 280 70
0 c76 0 110 19 110 60 0 11 -9 29 -20 40 -19 19 -33 20 -220 20 -187 0 -201
-1 -220 -20z"/>
</g>
</svg>
