<?xml version="1.0" standalone="no"?>
<!DOCTYPE svg PUBLIC "-//W3C//DTD SVG 20010904//EN"
 "http://www.w3.org/TR/2001/REC-SVG-20010904/DTD/svg10.dtd">
<svg version="1.0" xmlns="http://www.w3.org/2000/svg"
 width="512.000000pt" height="512.000000pt" viewBox="0 0 512.000000 512.000000"
 preserveAspectRatio="xMidYMid meet">

<g transform="translate(0.000000,512.000000) scale(0.100000,-0.100000)"
fill="#000000" stroke="none">
<path d="M2475 5114 c-163 -42 -286 -128 -355 -249 -32 -57 -70 -173 -70 -215
0 -24 -7 -30 -57 -51 -346 -137 -635 -404 -806 -745 -97 -194 -142 -369 -157
-609 -15 -242 -28 -344 -60 -474 -91 -371 -314 -797 -649 -1236 -76 -100 -102
-165 -109 -272 -12 -209 109 -373 322 -438 247 -75 700 -147 1101 -175 226
-16 210 -11 223 -75 57 -281 285 -506 570 -561 372 -71 740 169 828 540 21 89
-13 77 284 100 113 9 275 25 360 36 274 35 659 117 758 160 165 73 260 231
250 413 -7 107 -33 172 -109 272 -335 439 -558 865 -649 1236 -32 130 -45 232
-60 474 -15 240 -60 415 -156 608 -172 343 -459 609 -806 746 -51 21 -58 27
-58 51 0 42 -38 158 -70 215 -57 99 -164 186 -278 227 -56 19 -205 33 -247 22z
m222 -232 c60 -31 111 -86 141 -151 20 -44 25 -70 25 -130 -1 -116 8 -126 152
-178 372 -134 667 -436 802 -818 45 -129 63 -233 73 -432 6 -105 19 -243 30
-305 73 -427 292 -886 659 -1380 56 -74 108 -155 117 -179 34 -97 -11 -212
-103 -261 -99 -53 -497 -132 -868 -172 -587 -64 -1505 -73 -2115 -21 -476 41
-960 127 -1083 193 -92 49 -137 164 -103 261 9 24 61 105 117 179 367 494 586
953 659 1380 11 62 24 200 30 305 15 295 67 481 191 683 163 269 396 459 693
570 126 47 140 62 142 167 4 152 73 255 201 303 57 21 187 13 240 -14z m358
-4290 c-13 -56 -74 -169 -116 -216 -163 -184 -454 -222 -658 -85 -96 64 -166
156 -203 267 -10 30 -18 56 -18 58 0 1 225 2 501 2 l501 0 -7 -26z"/>
</g>
</svg>
