<?xml version="1.0" encoding="utf-8"?>
<!-- Generator: Adobe Illustrator 27.2.0, SVG Export Plug-In . SVG Version: 6.00 Build 0)  -->
<svg version="1.1" id="Layer_1" xmlns="http://www.w3.org/2000/svg" xmlns:xlink="http://www.w3.org/1999/xlink" x="0px" y="0px"
	 viewBox="0 0 595.28 404.09" style="enable-background:new 0 0 595.28 404.09;" xml:space="preserve">
<style type="text/css">
	.st0{filter:url(#Adobe_OpacityMaskFilter);}
	.st1{mask:url(#SVGID_1_);}
	.st2{fill:#384398;}
	.st3{fill:#384FA2;}
	.st4{fill:#2B358A;stroke:#2B358A;stroke-miterlimit:10;}
	.st5{fill:#FFFFFF;stroke:#2E3192;stroke-miterlimit:10;}
	.st6{filter:url(#Adobe_OpacityMaskFilter_00000023962346330813662370000014946703933094974593_);}
	.st7{filter:url(#Adobe_OpacityMaskFilter_00000023243185048633227970000012524748093812583045_);}
	.st8{fill:#FFFFFF;}
	.st9{fill:#FDFEFE;}
	.st10{fill:none;stroke:#384398;stroke-miterlimit:10;}
	.st11{filter:url(#Adobe_OpacityMaskFilter_00000132784848889651694010000010826097988411383960_);}
	.st12{mask:url(#SVGID_00000042724840012465160120000008874352371825940357_);fill:#FFFFFF;}
	.st13{filter:url(#Adobe_OpacityMaskFilter_00000003827452869626647960000010706764977762084527_);}
	.st14{mask:url(#SVGID_00000006687848158929348220000000971332255092934844_);fill:#FFFFFF;}
	.st15{filter:url(#Adobe_OpacityMaskFilter_00000017478908263498971190000011742716636169775755_);}
	.st16{filter:url(#Adobe_OpacityMaskFilter_00000004520784703643799190000001770310953922089611_);}
	.st17{mask:url(#SVGID_00000005964449489421845950000015524644512374940850_);fill:#FFFFFF;}
	.st18{filter:url(#Adobe_OpacityMaskFilter_00000175313454819755571260000014464196426387416245_);}
	.st19{mask:url(#SVGID_00000015339535742612049100000006868499306103128211_);}
	.st20{fill:none;stroke:#2B358A;stroke-miterlimit:10;}
	.st21{fill:none;stroke:#2E3192;stroke-miterlimit:10;}
	.st22{filter:url(#Adobe_OpacityMaskFilter_00000018237555067073742980000004523406016847662011_);}
	.st23{mask:url(#SVGID_00000036224714221981005300000006020903084569384888_);fill:#FFFFFF;}
	.st24{filter:url(#Adobe_OpacityMaskFilter_00000078733338380107227750000007772977482289954472_);}
	.st25{mask:url(#SVGID_00000153678117683645787200000017859229546761680539_);fill:#FFFFFF;}
	.st26{filter:url(#Adobe_OpacityMaskFilter_00000026849590031990541350000001936715298413105821_);}
	.st27{mask:url(#SVGID_00000050654003439249186660000008691129498456951735_);fill:#FFFFFF;}
</style>
<defs>
	<filter id="Adobe_OpacityMaskFilter" filterUnits="userSpaceOnUse" x="172.33" y="61.82" width="283.24" height="229.49">
		
			<feColorMatrix  type="matrix" values="-1 0 0 0 1  0 -1 0 0 1  0 0 -1 0 1  0 0 0 1 0" color-interpolation-filters="sRGB" result="source"/>
		<feFlood  style="flood-color:white;flood-opacity:1" result="back"/>
		<feBlend  in="source" in2="back" mode="normal"/>
	</filter>
</defs>
<mask maskUnits="userSpaceOnUse" x="172.33" y="61.82" width="283.24" height="229.49" id="SVGID_1_">
	<g class="st0">
	</g>
</mask>
<g class="st1">
	<g>
		<g>
			<path class="st2" d="M239.29,193.52c0.85-0.82,1.39-1.45,2.02-1.96c19.18-15.99,38.37-31.96,57.54-47.96
				c1.29-1.07,2.35-1.27,3.94-0.6c25.8,10.89,51.63,21.7,77.46,32.54c0.89,0.38,1.72,0.9,2.92,1.55c-2.14,1.84-3.92,3.44-5.76,4.96
				c-17.85,14.87-35.73,29.7-53.55,44.61c-1.58,1.33-2.81,1.46-4.6,0.7c-25.87-10.93-51.79-21.77-77.69-32.66
				C240.89,194.42,240.28,194.04,239.29,193.52z"/>
			<path class="st3" d="M299.28,61.82c1.26,0.46,1.97,0.68,2.66,0.97c25.75,10.81,51.48,21.64,77.26,32.39
				c1.96,0.82,2.8,1.8,2.86,4.04c0.7,24.03,1.54,48.05,2.32,72.07c0.03,0.9-0.08,1.81-0.13,3.15c-1.36-0.47-2.44-0.76-3.48-1.2
				c-24.19-10.14-48.39-20.27-72.54-30.49c-7.69-3.26-6.56-1.07-6.84-10.1c-0.69-22.33-1.49-44.65-2.23-66.97
				C299.12,64.53,299.22,63.38,299.28,61.82z"/>
		</g>
		<path class="st4" d="M235.42,113.47c20.11-16.52,40.23-33.06,60.35-49.58"/>
		<path class="st4" d="M236.05,129.3c20.08-16.49,40.16-33,60.24-49.49"/>
		<path class="st4" d="M236.19,123.92c19.98-16.41,39.96-32.83,59.93-49.24"/>
		<path class="st4" d="M235.98,118.19c19.96-16.4,39.93-32.8,59.89-49.2"/>
		<path class="st5" d="M239.44,188.65c20.12-16.53,40.24-33.07,60.36-49.59"/>
		<path class="st4" d="M238.36,183.67c20.12-16.53,40.24-33.07,60.36-49.59"/>
		<path class="st4" d="M237.84,178.08c20.12-16.53,40.24-33.07,60.36-49.59"/>
		<path class="st4" d="M236.34,134.85c20.11-16.52,40.23-33.06,60.35-49.58"/>
		<path class="st4" d="M236.97,150.69c20.08-16.49,40.16-33,60.24-49.49"/>
		<path class="st4" d="M237.11,145.29c19.98-16.41,39.96-32.83,59.93-49.24"/>
		<path class="st4" d="M236.9,139.58c19.96-16.4,39.93-32.8,59.89-49.2"/>
		<path class="st4" d="M237.02,156.64c20.11-16.52,40.23-33.06,60.35-49.58"/>
		<path class="st4" d="M237.64,172.48c20.08-16.49,40.16-33,60.24-49.49"/>
		<path class="st4" d="M237.79,167.08c19.98-16.41,39.96-32.83,59.93-49.24"/>
		<path class="st4" d="M237.58,161.37c19.96-16.4,39.93-32.8,59.89-49.2"/>
	</g>
	<defs>
		
			<filter id="Adobe_OpacityMaskFilter_00000158749408529455433670000013227866864027732868_" filterUnits="userSpaceOnUse" x="172.33" y="240.09" width="283.24" height="51.22">
			
				<feColorMatrix  type="matrix" values="-1 0 0 0 1  0 -1 0 0 1  0 0 -1 0 1  0 0 0 1 0" color-interpolation-filters="sRGB" result="source"/>
			<feFlood  style="flood-color:white;flood-opacity:1" result="back"/>
			<feBlend  in="source" in2="back" mode="normal"/>
		</filter>
	</defs>
	<mask maskUnits="userSpaceOnUse" x="172.33" y="240.09" width="283.24" height="51.22" id="SVGID_1_">
		<g style="filter:url(#Adobe_OpacityMaskFilter_00000158749408529455433670000013227866864027732868_);">
			<defs>
				
					<filter id="Adobe_OpacityMaskFilter_00000101102948413543429840000000018682284687828142_" filterUnits="userSpaceOnUse" x="349.98" y="267.59" width="3.73" height="3.57">
					
						<feColorMatrix  type="matrix" values="-1 0 0 0 1  0 -1 0 0 1  0 0 -1 0 1  0 0 0 1 0" color-interpolation-filters="sRGB" result="source"/>
					<feFlood  style="flood-color:white;flood-opacity:1" result="back"/>
					<feBlend  in="source" in2="back" mode="normal"/>
				</filter>
			</defs>
			<mask maskUnits="userSpaceOnUse" x="349.98" y="267.59" width="3.73" height="3.57" id="SVGID_1_">
				<g style="filter:url(#Adobe_OpacityMaskFilter_00000101102948413543429840000000018682284687828142_);">
				</g>
			</mask>
			<rect x="349.98" y="267.59" class="st8" width="3.73" height="3.57"/>
		</g>
	</mask>
	<g>
		<g id="XMLID_00000072266315405171880730000013082458324655768196_">
			<g>
				<polygon class="st2" points="454.66,289.47 454.67,289.48 450,289.48 449.99,289.47 				"/>
				<path class="st2" d="M446.43,276.47l8.23,13h-4.67l-7.78-12.57l-0.01-0.01h-5.85v12.58h-4.11c0-5.27,0-10.53,0-15.8
					c3.18,0.06,6.36,0.11,9.55,0.16c5.03,0,7.81-1.87,7.81-5.74c0-0.73-0.09-1.38-0.3-1.95c-0.06-0.19-0.13-0.37-0.22-0.54
					c-0.12-0.25-0.27-0.48-0.44-0.69c-0.51-0.65-1.24-1.14-2.16-1.47c-0.36-0.14-0.75-0.25-1.18-0.33c-0.1-0.03-0.19-0.05-0.28-0.06
					c-0.94-0.19-2.02-0.27-3.23-0.27h-5.43c-1.38,0.01-2.74,0.03-4.11,0.05c0-1.04,0-2.08,0-3.11h10.14c2.2,0,4.2,0.24,5.87,0.79
					c1.16,0.38,2.15,0.9,2.98,1.6c0.44,0.38,0.84,0.81,1.17,1.28c0.09,0.12,0.17,0.25,0.25,0.38c0.15,0.26,0.28,0.52,0.4,0.8
					c0.06,0.15,0.12,0.29,0.17,0.44c0.32,0.9,0.48,1.91,0.48,3.08c0,0.29-0.01,0.57-0.03,0.85c-0.02,0.14-0.02,0.27-0.04,0.41
					c-0.04,0.27-0.08,0.52-0.13,0.78c-0.11,0.5-0.26,0.98-0.45,1.43c-0.1,0.23-0.2,0.44-0.31,0.65
					C451.54,274.42,449.31,275.82,446.43,276.47z"/>
				<path class="st2" d="M453.71,268.09c0,0.29-0.02,0.57-0.04,0.84C453.7,268.66,453.7,268.37,453.71,268.09
					c-0.01-1.17-0.17-2.19-0.49-3.08C453.55,265.9,453.71,266.93,453.71,268.09z"/>
				<path class="st2" d="M453.63,269.34c-0.03,0.27-0.08,0.53-0.13,0.78C453.55,269.87,453.59,269.61,453.63,269.34z"/>
				<path class="st2" d="M453.05,271.56c-0.1,0.23-0.2,0.44-0.31,0.65C452.85,272,452.95,271.78,453.05,271.56z"/>
				<path class="st2" d="M452.65,263.77c0.15,0.26,0.29,0.52,0.4,0.8C452.94,264.3,452.8,264.03,452.65,263.77z"/>
				<path class="st2" d="M451.23,262.11c0.45,0.38,0.84,0.81,1.17,1.28C452.07,262.92,451.68,262.49,451.23,262.11z"/>
				<path class="st2" d="M446.48,263.43c-0.36-0.14-0.75-0.24-1.18-0.33C445.73,263.18,446.11,263.3,446.48,263.43z"/>
				<path class="st2" d="M445.01,263.04c-0.94-0.18-2.02-0.26-3.22-0.26h-5.43c-1.38,0.01-2.75,0.03-4.12,0.05v-0.01
					c1.37-0.02,2.73-0.04,4.11-0.05h5.43C442.99,262.78,444.07,262.86,445.01,263.04z"/>
				<polygon class="st2" points="442.21,276.89 436.36,276.89 436.36,289.48 432.25,289.48 432.25,289.47 436.35,289.47 
					436.35,276.89 442.2,276.89 				"/>
				<path class="st2" d="M417.14,259.71l10.96,29.76h-4.35l-5.64-16.63c-1.16-3.33-2.2-6.59-3.25-10.02h-0.01h-0.19h-0.01
					c-1.01,3.46-2.04,6.69-3.21,10.02l-5.71,16.63h-4.19l10.95-29.76H417.14z"/>
				<path class="st2" d="M418.1,272.84l5.64,16.63h-0.01L418.1,272.84c-1.17-3.33-2.21-6.59-3.25-10.02h0.01
					C415.9,266.25,416.94,269.51,418.1,272.84z"/>
				<polygon class="st2" points="412.5,259.71 401.55,289.47 401.54,289.47 				"/>
				<path class="st2" d="M401.53,275.26c0-1.49-0.13-2.87-0.39-4.14C401.41,272.39,401.54,273.77,401.53,275.26
					c0.01,4.73-1.33,8.48-3.89,11.04C400.19,283.73,401.53,279.98,401.53,275.26z"/>
				<path class="st2" d="M401.14,271.11c0.26,1.28,0.39,2.66,0.39,4.14c0,4.72-1.34,8.47-3.89,11.04
					c-2.56,2.56-6.33,3.95-11.22,3.95h-8.28c0.03-1.09,0.05-2.18,0.06-3.27c1.78,0.3,4.49,0.57,7.73,0.16
					c1.08-0.14,2.09-0.27,3.02-0.44c0.36-0.06,0.72-0.15,1.07-0.23c0,0,0-0.01,0.01,0c1.04-0.26,1.99-0.62,2.87-1.18
					c0.44-0.28,0.86-0.61,1.27-0.99h0.01c3.1-2.97,3.1-7.41,3.1-9.04c0-2.35-0.36-4.37-1.11-6.04c-0.29-0.67-0.65-1.28-1.06-1.83
					c-1.86-2.49-4.92-3.8-9.17-3.8h-3.67c-1.38-0.02-2.75-0.02-4.12-0.03c0-1.03,0.01-2.06,0.01-3.08h8.1
					c1.62,0,3.12,0.14,4.49,0.42c0.4,0.08,0.8,0.17,1.18,0.28c2.81,0.77,5.03,2.16,6.63,4.13c0.42,0.52,0.8,1.09,1.13,1.7
					c0,0,0,0,0.01,0.01c0.21,0.4,0.42,0.82,0.6,1.25c0.18,0.44,0.35,0.9,0.49,1.37c0.07,0.23,0.14,0.48,0.21,0.72
					C401.03,270.61,401.09,270.86,401.14,271.11z"/>
				<path class="st2" d="M400.98,270.36c-0.06-0.24-0.13-0.48-0.21-0.72C400.85,269.88,400.92,270.12,400.98,270.36z"/>
				<path class="st2" d="M399.68,267.02c0.22,0.4,0.42,0.82,0.6,1.25C400.1,267.83,399.89,267.41,399.68,267.02z"/>
				<path class="st2" d="M398.54,265.31c0.42,0.52,0.8,1.09,1.13,1.7C399.34,266.4,398.96,265.84,398.54,265.31z"/>
				<path class="st2" d="M356.21,260.48l11.72,18.71l3.49,6.15l0.01,0.02h0.2c-0.21-3-0.52-6.36-0.52-9.47v-15.4h3.9v29.77h-4.25
					l-11.72-18.72l-3.5-6.15l-0.01-0.01h-0.2l-0.97-0.03c0.01-0.12,0.01-0.19,0.01-0.19c-0.06-0.44-0.11-0.86-0.17-1.28
					c0-0.02-0.01-0.02-0.01-0.03c-0.01-0.05-0.02-0.09-0.05-0.13c0-0.01,0-0.02-0.01-0.02h1.83v-0.01v-3.19v-0.01v-0.01h0.22
					L356.21,260.48z"/>
				<path class="st2" d="M375.01,260.48L375.01,260.48l-3.9,0.01v15.4c0,3.12,0.32,6.48,0.52,9.47h-0.2l-0.01-0.02h0.2
					c-0.21-3-0.52-6.36-0.52-9.47v-15.4L375.01,260.48L375.01,260.48z"/>
				<rect x="354.15" y="263.67" class="st2" width="1.83" height="0.01"/>
				<path class="st2" d="M355.98,260.48v3.19h-1.83c-0.11-0.36-0.26-0.71-0.45-1.03s-0.43-0.62-0.69-0.9
					c-0.32-0.24-0.63-0.49-0.95-0.74c-0.04-0.02-0.07-0.04-0.1-0.06v-0.46H355.98z"/>
				<path class="st2" d="M355.87,274.67v15.58h-3.91c0-6.8,0-13.6,0-20.4c1.17-1.18,1.91-2.37,2.2-3.24
					c0.03-0.09,0.06-0.18,0.07-0.26c0.02-0.03,0.02-0.06,0.03-0.1c0.07-0.36,0.1-0.7,0.11-0.91v-0.01l0.97,0.03
					c0.02,0.27,0.04,0.53,0.06,0.8C355.61,268.94,355.87,271.83,355.87,274.67z"/>
				<path class="st2" d="M354.2,263.84c-0.01-0.04-0.02-0.09-0.05-0.13C354.18,263.75,354.2,263.79,354.2,263.84z"/>
				<path class="st2" d="M354.15,263.67L354.15,263.67l-12.71,0.01v9.33c2.5,0,4.99,0,7.5,0c0.02,1.07,0.03,2.14,0.04,3.21
					c-2.51,0-5.03,0-7.54,0v10.83c2.56,0,5.13,0,7.69,0c0,1.06,0,2.13,0,3.21c-3.94,0-7.88,0-11.82,0v-29.78h14.64v0.01h-0.01v0.47
					c0.03,0.02,0.06,0.04,0.1,0.06c0.32,0.24,0.63,0.49,0.95,0.74c0.27,0.27,0.5,0.57,0.7,0.89
					C353.89,262.96,354.04,263.31,354.15,263.67z"/>
				<path class="st2" d="M353.01,261.74c0.26,0.27,0.5,0.57,0.69,0.9C353.5,262.32,353.27,262.03,353.01,261.74
					c-0.32-0.24-0.63-0.49-0.96-0.73c-0.04-0.02-0.07-0.04-0.1-0.06v-0.47h0.01v0.46c0.03,0.02,0.06,0.04,0.1,0.06
					C352.38,261.25,352.68,261.5,353.01,261.74z"/>
				<rect x="351.02" y="240.09" class="st9" width="0.34" height="0.35"/>
				<polygon class="st2" points="334.68,287.05 334.68,290.25 316.42,290.25 316.42,260.48 320.54,260.48 320.54,287.05 				"/>
				<path class="st2" d="M302.84,260.48l10.96,29.78h-4.36l-5.64-16.63c-1.16-3.33-2.2-6.6-3.25-10.04h-0.2
					c-1.01,3.46-2.04,6.7-3.21,10.04l-5.71,16.63h-4.2l10.96-29.78H302.84z"/>
				<path class="st2" d="M283.19,284.13l2.25,2.36c-2.56,2.74-5.73,4.3-9.94,4.3c-1.76,0-3.42-0.27-4.95-0.8
					c-1.97-0.69-3.7-1.79-5.12-3.28c-2.52-2.64-4.03-6.49-4.03-11.32c0-2.4,0.39-4.57,1.08-6.47c0.71-1.9,1.73-3.53,3.02-4.86
					c2.56-2.66,6.16-4.13,10.27-4.13c1.47,0,2.83,0.25,4.04,0.66c0.4,0.14,0.79,0.29,1.16,0.46c0.94,0.42,1.78,0.94,2.51,1.5
					c0.43,0.35,0.82,0.69,1.18,1.05l-2.26,2.47c-1.71-1.67-3.85-2.81-6.56-2.81c-1.35,0-2.59,0.22-3.71,0.65
					c-0.32,0.12-0.63,0.25-0.92,0.41c-0.9,0.45-1.71,1.06-2.41,1.79c-1.99,2.08-3.14,5.23-3.14,9.17c0,0.94,0.06,1.83,0.18,2.67
					c0.12,0.84,0.29,1.64,0.52,2.38c0.11,0.37,0.25,0.73,0.39,1.08c0.07,0.18,0.14,0.35,0.22,0.51c0.46,1,1.04,1.89,1.73,2.63
					c0.12,0.12,0.24,0.24,0.36,0.36c0.72,0.71,1.54,1.27,2.46,1.69c1.23,0.56,2.63,0.85,4.16,0.85c0.78,0,1.5-0.08,2.18-0.23
					C279.92,286.8,281.63,285.71,283.19,284.13z"/>
				<path class="st2" d="M283.18,284.11l0.01,0.02c-1.55,1.57-3.26,2.66-5.32,3.11C279.92,286.78,281.63,285.69,283.18,284.11z"/>
				<path class="st2" d="M262.48,268.92c0.7-1.9,1.73-3.54,3.02-4.86C264.21,265.39,263.19,267.03,262.48,268.92z"/>
				<path class="st2" d="M265.42,286.71c-2.53-2.63-4.04-6.48-4.04-11.32c0-2.4,0.38-4.57,1.09-6.47c-0.7,1.9-1.08,4.07-1.08,6.47
					C261.39,280.22,262.91,284.07,265.42,286.71z"/>
				<polygon class="st2" points="247.27,260.48 247.27,263.68 237.49,263.68 237.49,290.24 233.36,290.24 233.36,263.68 
					223.57,263.68 223.57,260.48 				"/>
				<polygon class="st2" points="219.83,260.64 219.83,263.84 205.27,263.84 205.27,273.88 217.61,273.88 217.61,277.09 
					205.27,277.09 205.27,290.41 201.15,290.41 201.15,260.64 				"/>
				<path class="st2" d="M195.39,260.63v29.78h-4.26l-11.72-18.73l-3.5-6.15h-0.2c0.21,3.01,0.52,6.19,0.52,9.3v15.59h-3.91v-29.78
					h4.25l11.72,18.71l3.5,6.16h0.2c-0.21-3-0.52-6.36-0.52-9.47v-15.4H195.39z"/>
			</g>
			<g>
				<polygon class="st10" points="201.15,260.64 219.83,260.64 219.83,263.84 205.27,263.84 205.27,273.88 217.61,273.88 
					217.61,277.09 205.27,277.09 205.27,290.41 201.15,290.41 				"/>
				<polygon class="st10" points="233.36,263.68 223.57,263.68 223.57,260.48 247.27,260.48 247.27,263.68 237.49,263.68 
					237.49,290.24 233.36,290.24 				"/>
				<path class="st10" d="M453.67,268.93c0.02-0.27,0.03-0.56,0.03-0.85c0-1.16-0.17-2.18-0.48-3.08c-0.05-0.15-0.1-0.29-0.17-0.44
					c-0.12-0.27-0.25-0.54-0.4-0.8c-0.08-0.13-0.16-0.26-0.25-0.38c-0.33-0.48-0.73-0.9-1.17-1.28c-0.82-0.69-1.82-1.22-2.98-1.6
					c-1.68-0.56-3.67-0.8-5.88-0.8h-10.14c0,1.03,0,2.08,0,3.12h0.01c1.37-0.02,2.73-0.04,4.11-0.05h5.43
					c1.21,0,2.29,0.08,3.23,0.27c0.09,0.01,0.19,0.02,0.28,0.06c0.43,0.08,0.82,0.19,1.18,0.33c0.92,0.33,1.65,0.82,2.16,1.47
					c0.17,0.21,0.32,0.44,0.44,0.69c0.09,0.17,0.16,0.35,0.22,0.54c0.2,0.56,0.29,1.2,0.29,1.94c0,3.87-2.78,5.74-7.81,5.74
					c-3.19-0.06-6.36-0.1-9.55-0.16c0,5.27,0,10.54,0,15.81h0.01h4.11v-12.58h5.85l0.01,0.01l7.78,12.57h4.67l-8.23-13
					c2.88-0.65,5.11-2.05,6.31-4.26c0.11-0.21,0.21-0.43,0.31-0.65c0.19-0.45,0.34-0.93,0.45-1.43c0.06-0.26,0.09-0.52,0.13-0.78"/>
				<polyline class="st10" points="401.55,289.47 401.54,289.47 412.5,259.71 				"/>
				<path class="st10" d="M283.48,262.56c0.43,0.35,0.82,0.69,1.18,1.05"/>
				<path class="st10" d="M279.81,260.6c0.4,0.14,0.79,0.29,1.16,0.46"/>
				<polygon class="st10" points="334.68,287.05 320.54,287.05 320.54,260.48 316.42,260.48 316.42,290.25 334.68,290.25 				"/>
				<path class="st10" d="M269.06,284.93c0.72,0.7,1.54,1.27,2.46,1.69c1.23,0.56,2.63,0.85,4.16,0.85c0.78,0,1.5-0.08,2.18-0.23
					c2.06-0.44,3.77-1.53,5.32-3.11l2.25,2.36l0.01,0.02c-2.56,2.74-5.73,4.3-9.94,4.3c-1.77,0-3.43-0.28-4.96-0.82
					c-1.97-0.69-3.7-1.79-5.12-3.28c-2.52-2.64-4.03-6.49-4.03-11.32c0-2.4,0.39-4.57,1.08-6.47c0.71-1.9,1.73-3.53,3.02-4.86
					c2.56-2.66,6.16-4.13,10.27-4.13c1.47,0,2.83,0.25,4.04,0.66c0.4,0.14,0.79,0.29,1.16,0.46c0.94,0.42,1.78,0.94,2.51,1.5
					c0.44,0.34,0.83,0.69,1.18,1.05h0.01l-2.26,2.47h-0.01c-1.71-1.67-3.85-2.81-6.56-2.81c-1.35,0-2.59,0.22-3.71,0.65
					c-0.32,0.12-0.62,0.26-0.92,0.41c-0.9,0.45-1.71,1.06-2.41,1.79c-1.99,2.09-3.13,5.23-3.13,9.17c0,0.94,0.06,1.83,0.17,2.67
					c0.12,0.84,0.3,1.64,0.52,2.38c0.12,0.37,0.25,0.73,0.39,1.08"/>
				<path class="st10" d="M266.97,281.94c0.47,1,1.04,1.88,1.73,2.63"/>
				<path class="st10" d="M287.24,290.25l10.95-29.78h0.01h4.65l10.96,29.78h-4.36l-5.64-16.63c-1.16-3.33-2.2-6.6-3.25-10.04h-0.2
					c-1.01,3.46-2.04,6.7-3.21,10.04l-5.71,16.63H287.24z"/>
				<path class="st10" d="M354.15,263.68c0.01,0.01,0.01,0.02,0.01,0.02c0.02,0.04,0.04,0.08,0.05,0.13c0,0.01,0.01,0.02,0.01,0.03
					c0.06,0.42,0.11,0.84,0.17,1.28c0,0,0,0.07-0.01,0.19v0.01c-0.01,0.21-0.04,0.56-0.11,0.91c-0.01,0.03-0.02,0.06-0.03,0.1
					c-0.02,0.08-0.04,0.17-0.07,0.26c-0.29,0.86-1.03,2.06-2.2,3.24c0,6.8,0,13.6,0,20.4v0.01h3.91v-0.01v-15.58
					c0-2.84-0.26-5.73-0.47-8.5c-0.02-0.27-0.04-0.53-0.06-0.79h0.2l3.5,6.15l11.72,18.72l0.01,0.01h4.25v-29.78h-0.01h-3.9v15.4
					c0,3.12,0.32,6.48,0.52,9.47h-0.2l-0.01-0.02l-3.49-6.15l-11.72-18.71h-0.22"/>
				<path class="st10" d="M399.67,267.01c-0.33-0.61-0.71-1.17-1.13-1.7c-1.6-1.97-3.82-3.37-6.63-4.13
					c-0.38-0.11-0.78-0.2-1.18-0.28c-1.37-0.28-2.87-0.42-4.49-0.42h-8.1h-0.01c0,1.03-0.01,2.05-0.01,3.08h0.01
					c1.38,0.01,2.75,0.02,4.12,0.03h3.67c4.26,0,7.31,1.31,9.17,3.8c0.41,0.56,0.76,1.16,1.06,1.83c0.74,1.67,1.1,3.69,1.1,6.04
					c0,1.62,0.01,6.06-3.09,9.04h-0.01c-0.41,0.39-0.83,0.71-1.27,0.99c-0.88,0.55-1.83,0.91-2.87,1.18"/>
				<path class="st10" d="M390.02,286.46c-0.35,0.08-0.7,0.16-1.07,0.23c-0.93,0.17-1.93,0.3-3.02,0.44
					c-3.24,0.41-5.94,0.14-7.73-0.16h-0.01c-0.02,1.09-0.04,2.18-0.06,3.27h0.01h8.28c4.88,0,8.66-1.39,11.22-3.95
					c2.55-2.57,3.89-6.32,3.89-11.04c0-1.49-0.13-2.87-0.39-4.14c-0.06-0.25-0.11-0.5-0.17-0.75c-0.06-0.24-0.13-0.48-0.21-0.72
					c-0.14-0.48-0.31-0.93-0.49-1.37c-0.18-0.44-0.39-0.86-0.6-1.25"/>
				<path class="st10" d="M354.15,263.68h-12.71v9.33c2.5,0,4.99,0,7.5,0c0.02,1.07,0.03,2.14,0.04,3.21c-2.51,0-5.03,0-7.54,0
					v10.83c2.56,0,5.13,0,7.69,0c0,1.06,0,2.13,0,3.21c-3.94,0-7.88,0-11.82,0v-29.78h14.64h4.02v0.01v3.19v0.01H354.15z"/>
				<path class="st10" d="M417.14,259.71L417.14,259.71l10.96,29.76h-0.01h-4.35l-5.64-16.63c-1.16-3.33-2.2-6.59-3.25-10.02h-0.01
					h-0.19c-1.01,3.46-2.04,6.69-3.21,10.02l-5.71,16.63h-0.01h-4.19l10.95-29.76"/>
			</g>
		</g>
		<rect x="350.84" y="269.71" class="st8" width="6.06" height="9.02"/>
		<defs>
			
				<filter id="Adobe_OpacityMaskFilter_00000044886950135762103070000016536081263572389812_" filterUnits="userSpaceOnUse" x="350.81" y="264.02" width="6.3" height="7.13">
				
					<feColorMatrix  type="matrix" values="-1 0 0 0 1  0 -1 0 0 1  0 0 -1 0 1  0 0 0 1 0" color-interpolation-filters="sRGB" result="source"/>
				<feFlood  style="flood-color:white;flood-opacity:1" result="back"/>
				<feBlend  in="source" in2="back" mode="normal"/>
			</filter>
		</defs>
		
			<mask maskUnits="userSpaceOnUse" x="350.81" y="264.02" width="6.3" height="7.13" id="SVGID_00000003809643703646285460000010584920636435752890_">
			<g style="filter:url(#Adobe_OpacityMaskFilter_00000044886950135762103070000016536081263572389812_);">
			</g>
		</mask>
		<polygon style="mask:url(#SVGID_00000003809643703646285460000010584920636435752890_);fill:#FFFFFF;" points="353.72,271.16 
			350.81,266.02 354.21,264.02 357.12,269.16 		"/>
	</g>
	<defs>
		
			<filter id="Adobe_OpacityMaskFilter_00000073720747998179374240000006439455447499091364_" filterUnits="userSpaceOnUse" x="313.25" y="226.72" width="0.51" height="0.52">
			
				<feColorMatrix  type="matrix" values="-1 0 0 0 1  0 -1 0 0 1  0 0 -1 0 1  0 0 0 1 0" color-interpolation-filters="sRGB" result="source"/>
			<feFlood  style="flood-color:white;flood-opacity:1" result="back"/>
			<feBlend  in="source" in2="back" mode="normal"/>
		</filter>
	</defs>
	
		<mask maskUnits="userSpaceOnUse" x="313.25" y="226.72" width="0.51" height="0.52" id="SVGID_00000103258708098649729060000013304905209966333583_">
		<g style="filter:url(#Adobe_OpacityMaskFilter_00000073720747998179374240000006439455447499091364_);">
		</g>
	</mask>
	
		<rect x="313.25" y="226.72" style="mask:url(#SVGID_00000103258708098649729060000013304905209966333583_);fill:#FFFFFF;" width="0.51" height="0.52"/>
</g>
<defs>
	
		<filter id="Adobe_OpacityMaskFilter_00000026854849947005996680000005859653914360436363_" filterUnits="userSpaceOnUse" x="824.19" y="79.03" width="415.59" height="76.92">
		
			<feColorMatrix  type="matrix" values="-1 0 0 0 1  0 -1 0 0 1  0 0 -1 0 1  0 0 0 1 0" color-interpolation-filters="sRGB" result="source"/>
		<feFlood  style="flood-color:white;flood-opacity:1" result="back"/>
		<feBlend  in="source" in2="back" mode="normal"/>
	</filter>
</defs>
<mask maskUnits="userSpaceOnUse" x="824.19" y="79.03" width="415.59" height="76.92" id="SVGID_00000018207266264337740090000017240329716332799650_">
	<g style="filter:url(#Adobe_OpacityMaskFilter_00000026854849947005996680000005859653914360436363_);">
		<defs>
			
				<filter id="Adobe_OpacityMaskFilter_00000181056521111539644610000008907861702375846539_" filterUnits="userSpaceOnUse" x="1106.81" y="113.1" width="4.72" height="4.42">
				
					<feColorMatrix  type="matrix" values="-1 0 0 0 1  0 -1 0 0 1  0 0 -1 0 1  0 0 0 1 0" color-interpolation-filters="sRGB" result="source"/>
				<feFlood  style="flood-color:white;flood-opacity:1" result="back"/>
				<feBlend  in="source" in2="back" mode="normal"/>
			</filter>
		</defs>
		
			<mask maskUnits="userSpaceOnUse" x="1106.81" y="113.1" width="4.72" height="4.42" id="SVGID_00000018207266264337740090000017240329716332799650_">
			<g style="filter:url(#Adobe_OpacityMaskFilter_00000181056521111539644610000008907861702375846539_);">
			</g>
		</mask>
		
			<rect x="1106.81" y="113.1" style="mask:url(#SVGID_00000018207266264337740090000017240329716332799650_);fill:#FFFFFF;" width="4.72" height="4.42"/>
	</g>
</mask>
<g>
	<defs>
		
			<filter id="Adobe_OpacityMaskFilter_00000170250490159931065080000018235165715420726197_" filterUnits="userSpaceOnUse" x="824.19" y="79.03" width="415.59" height="76.92">
			
				<feColorMatrix  type="matrix" values="-1 0 0 0 1  0 -1 0 0 1  0 0 -1 0 1  0 0 0 1 0" color-interpolation-filters="sRGB" result="source"/>
			<feFlood  style="flood-color:white;flood-opacity:1" result="back"/>
			<feBlend  in="source" in2="back" mode="normal"/>
		</filter>
	</defs>
	
		<mask maskUnits="userSpaceOnUse" x="824.19" y="79.03" width="415.59" height="76.92" id="SVGID_00000021089828227248049260000011397105803773360544_">
		<g style="filter:url(#Adobe_OpacityMaskFilter_00000170250490159931065080000018235165715420726197_);">
			<rect x="1107.7" y="115.71" class="st8" width="7.66" height="11.17"/>
		</g>
	</mask>
	<g style="mask:url(#SVGID_00000021089828227248049260000011397105803773360544_);">
		<g id="XMLID_00000087398790347664150100000018371752028532334507_">
			<g>
				<polygon class="st2" points="1238.86,140.17 1238.87,140.18 1232.97,140.18 1232.96,140.17 				"/>
				<path class="st2" d="M1237.66,113.7c0,0.36-0.02,0.7-0.05,1.04C1237.64,114.4,1237.65,114.05,1237.66,113.7
					c-0.01-1.45-0.22-2.71-0.62-3.82C1237.45,110.99,1237.66,112.26,1237.66,113.7z"/>
				<path class="st2" d="M1237.56,115.25c-0.04,0.33-0.1,0.65-0.17,0.96C1237.46,115.9,1237.51,115.58,1237.56,115.25z"/>
				<path class="st2" d="M1236.82,117.99c-0.12,0.28-0.25,0.55-0.39,0.81C1236.57,118.54,1236.7,118.27,1236.82,117.99z"/>
				<path class="st2" d="M1236.32,108.35c0.19,0.32,0.37,0.65,0.51,0.99C1236.68,109,1236.51,108.67,1236.32,108.35z"/>
				<path class="st2" d="M1210.54,103.33h12.81c3.89,0,7.28,0.59,9.78,2c0.01,0,0.01,0.01,0.01,0.01c0.66,0.37,1.26,0.81,1.79,1.3
					c0.54,0.51,1,1.08,1.39,1.71c0.19,0.32,0.36,0.65,0.51,0.99c0.08,0.18,0.15,0.36,0.21,0.54c0.4,1.11,0.61,2.37,0.61,3.81
					c0,0.36-0.01,0.71-0.04,1.05c-0.02,0.17-0.03,0.35-0.05,0.51c-0.05,0.33-0.1,0.65-0.17,0.96c-0.14,0.63-0.33,1.22-0.57,1.78
					c-0.12,0.28-0.25,0.55-0.39,0.81c-1.51,2.73-4.33,4.47-7.97,5.27l10.4,16.1h-5.9l-9.83-15.57l-0.01-0.01h-7.39v15.58h-5.19
					c0-6.53,0-13.04,0-19.57c4.02,0.07,8.03,0.13,12.06,0.2c6.36,0,9.87-2.32,9.87-7.11c0-1.21-0.22-2.23-0.65-3.07
					c-0.11-0.21-0.23-0.41-0.37-0.61c-0.2-0.29-0.43-0.55-0.68-0.78c-0.6-0.55-1.35-0.98-2.25-1.3c-1.55-0.57-3.54-0.81-5.93-0.81
					h-6.86c-1.74,0.01-3.46,0.04-5.19,0.06C1210.54,105.89,1210.54,104.61,1210.54,103.33z"/>
				<polygon class="st2" points="1215.74,124.6 1215.74,140.18 1210.54,140.18 1210.54,140.17 1215.73,140.17 1215.73,124.59 
					1223.12,124.59 1223.13,124.6 				"/>
				<path class="st2" d="M1215.73,107.12h6.86c2.39,0,4.38,0.24,5.93,0.81c-1.55-0.56-3.53-0.8-5.92-0.8h-6.86
					c-1.74,0.01-3.47,0.04-5.2,0.06v-0.01C1212.27,107.16,1213.99,107.13,1215.73,107.12z"/>
				<path class="st2" d="M1191.46,103.32l13.84,36.85h-5.5l-7.13-20.59c-1.47-4.12-2.78-8.16-4.1-12.41h-0.01h-0.24h-0.01
					c-1.27,4.28-2.58,8.29-4.05,12.41l-7.21,20.59h-5.29l13.83-36.85H1191.46z"/>
				<path class="st2" d="M1192.67,119.58l7.13,20.59h-0.01l-7.13-20.59c-1.47-4.12-2.78-8.16-4.1-12.41h0.01
					C1189.89,111.42,1191.2,115.46,1192.67,119.58z"/>
				<polygon class="st2" points="1185.59,103.32 1171.76,140.17 1171.75,140.17 				"/>
				<path class="st2" d="M1171.75,122.57c0,5.86-1.69,10.5-4.92,13.67c3.22-3.18,4.91-7.82,4.91-13.67c0-1.84-0.16-3.55-0.49-5.13
					C1171.58,119.02,1171.75,120.73,1171.75,122.57z"/>
				<path class="st2" d="M1171.25,117.44c0.33,1.58,0.49,3.29,0.49,5.13c0,5.85-1.69,10.49-4.91,13.67c-3.23,3.18-8,4.89-14.17,4.89
					h-10.46c0.04-1.35,0.06-2.7,0.08-4.05c2.25,0.37,5.67,0.71,9.76,0.2c0.28-0.03,0.55-0.07,0.82-0.1
					c0.52-0.07,1.02-0.13,1.52-0.21c0.01,0,0.02,0,0.02,0c0.74-0.1,1.44-0.22,2.12-0.37c0.01-0.01,0.02,0,0.02,0
					c1.58-0.33,3-0.8,4.3-1.61c0.56-0.35,1.09-0.75,1.61-1.23h0.01c3.92-3.68,3.91-9.18,3.91-11.19c0-2.91-0.46-5.41-1.4-7.48
					c-0.37-0.83-0.82-1.58-1.34-2.27c-2.35-3.08-6.21-4.7-11.59-4.7h-4.64c-1.74-0.02-3.47-0.03-5.21-0.04
					c0-1.28,0.01-2.55,0.01-3.81h10.23c2.05,0,3.94,0.17,5.67,0.52c0.51,0.1,1.01,0.21,1.49,0.35c3.55,0.95,6.35,2.68,8.37,5.12
					c0.35,0.43,0.68,0.89,0.98,1.36c0.16,0.25,0.31,0.49,0.46,0.75c0.27,0.49,0.53,1.01,0.76,1.55
					C1170.63,115.01,1170.99,116.19,1171.25,117.44z"/>
				<path class="st2" d="M1169.4,112.37c0.28,0.5,0.53,1.01,0.76,1.55C1169.93,113.38,1169.67,112.86,1169.4,112.37z"/>
				<path class="st2" d="M1167.96,110.26c0.35,0.43,0.68,0.89,0.98,1.36C1168.64,111.15,1168.31,110.69,1167.96,110.26z"/>
				<path class="st2" d="M1138.23,104.27v0.01h-4.93v19.07c0,3.86,0.4,8.02,0.66,11.73h-0.25l-0.01-0.02h0.25
					c-0.26-3.71-0.66-7.87-0.66-11.73v-19.07L1138.23,104.27L1138.23,104.27z"/>
				<rect x="1111.88" y="108.23" class="st2" width="2.31" height="0.01"/>
				<path class="st2" d="M1113.46,111.32c0.26,3.43,0.59,7.01,0.59,10.53v19.29h-4.94c0-8.42,0-16.84,0-25.26
					c1.48-1.46,2.41-2.94,2.78-4.01c0.04-0.11,0.07-0.22,0.09-0.32c0.02-0.04,0.03-0.08,0.04-0.12c0.09-0.44,0.13-0.87,0.14-1.13
					v-0.01l1.22,0.04C1113.4,110.66,1113.43,110.99,1113.46,111.32z"/>
				<path class="st2" d="M1114.19,108.24v-0.01v-3.95v-0.01v-0.01h0.28l0.01,0.02l14.81,23.17l4.41,7.61l0.01,0.02h0.25
					c-0.26-3.71-0.66-7.87-0.66-11.73v-19.07h4.93v36.86h-5.37l-14.8-23.18l-4.42-7.62l-0.01-0.01h-0.25l-1.22-0.04
					c0.01-0.15,0.01-0.24,0.01-0.24c-0.07-0.54-0.14-1.06-0.21-1.58c0-0.01-0.01-0.03-0.01-0.04c-0.01-0.06-0.03-0.11-0.06-0.16
					c0-0.01,0-0.02-0.01-0.03H1114.19z"/>
				<path class="st2" d="M1111.89,108.27c0.03,0.05,0.05,0.1,0.06,0.16C1111.94,108.38,1111.92,108.32,1111.89,108.27z"/>
				<path class="st2" d="M1109.11,104.28h5.08v3.95h-2.31c-0.14-0.45-0.33-0.88-0.57-1.28c-0.24-0.4-0.54-0.77-0.87-1.11
					c-0.41-0.3-0.8-0.61-1.2-0.92c-0.05-0.02-0.09-0.05-0.13-0.07V104.28z"/>
				<path class="st2" d="M1109.11,104.28h-0.01v0.58c0.04,0.02,0.08,0.05,0.13,0.07c0.41,0.3,0.8,0.61,1.2,0.92
					c0.34,0.33,0.63,0.7,0.88,1.1c0.24,0.4,0.43,0.83,0.57,1.28v0.01h-16.06v11.55c3.16,0,6.31,0,9.48,0
					c0.02,1.33,0.04,2.65,0.05,3.97c-3.17,0-6.35,0-9.52,0v13.41c3.23,0,6.48,0,9.71,0c0,1.31,0,2.64,0,3.97c-4.98,0-9.95,0-14.93,0
					v-36.87h18.5V104.28z"/>
				<path class="st2" d="M1109.23,104.93c-0.05-0.02-0.09-0.05-0.13-0.07v-0.58h0.01v0.57c0.04,0.02,0.08,0.05,0.13,0.07
					c0.4,0.31,0.79,0.62,1.2,0.92c0.33,0.34,0.63,0.71,0.87,1.11c-0.25-0.4-0.54-0.77-0.88-1.1
					C1110.03,105.54,1109.64,105.23,1109.23,104.93z"/>
				<rect x="1107.93" y="79.03" class="st9" width="0.43" height="0.43"/>
				<polygon class="st2" points="1087.28,137.17 1087.28,141.14 1064.22,141.14 1064.22,104.27 1069.42,104.27 1069.42,137.17 				
					"/>
				<path class="st2" d="M1047.06,104.27l13.84,36.87h-5.51l-7.13-20.59c-1.47-4.12-2.78-8.17-4.1-12.43h-0.25
					c-1.27,4.28-2.58,8.3-4.05,12.43l-7.21,20.59h-5.3l13.84-36.87H1047.06z"/>
				<path class="st2" d="M1022.23,133.56l2.84,2.92c-3.23,3.39-7.24,5.33-12.56,5.33c-2.22,0-4.32-0.34-6.25-0.99
					c-2.49-0.85-4.68-2.22-6.47-4.06c-3.18-3.27-5.09-8.04-5.09-14.02c0-2.97,0.49-5.65,1.37-8c0.9-2.36,2.19-4.38,3.81-6.03
					c3.24-3.3,7.78-5.11,12.97-5.11c1.86,0,3.57,0.31,5.11,0.81c0.51,0.18,1,0.37,1.47,0.58c1.19,0.52,2.25,1.16,3.17,1.86
					c0.54,0.42,1.04,0.86,1.49,1.3l-2.85,3.06c-2.16-2.07-4.86-3.48-8.29-3.48c-1.7,0-3.27,0.27-4.69,0.8
					c-0.4,0.15-0.79,0.31-1.16,0.51c-1.14,0.56-2.16,1.31-3.05,2.22c-2.52,2.58-3.97,6.48-3.97,11.36c0,1.16,0.08,2.26,0.23,3.31
					c0.15,1.04,0.37,2.03,0.66,2.95c0.14,0.46,0.31,0.91,0.49,1.34c0.09,0.22,0.18,0.43,0.28,0.63c0.58,1.24,1.32,2.34,2.19,3.26
					c0.15,0.15,0.3,0.3,0.45,0.44c0.91,0.88,1.95,1.57,3.11,2.09c1.55,0.69,3.32,1.05,5.26,1.05c0.24,0,0.48-0.01,0.72-0.02
					C1017.02,137.49,1019.78,136,1022.23,133.56z"/>
				<path class="st2" d="M1022.22,133.54l0.01,0.02c-2.45,2.44-5.21,3.93-8.76,4.11C1017.02,137.48,1019.78,135.98,1022.22,133.54z"
					/>
				<path class="st2" d="M996.07,114.74c0.89-2.36,2.19-4.39,3.81-6.03C998.26,110.36,996.97,112.38,996.07,114.74z"/>
				<path class="st2" d="M994.7,122.74c0,5.98,1.91,10.75,5.09,14.02c-3.19-3.26-5.1-8.03-5.1-14.02c0-2.97,0.48-5.65,1.38-8
					C995.19,117.09,994.7,119.77,994.7,122.74z"/>
				<path class="st3" d="M986.15,134.01c0.01,0.35-0.03,0.7-0.05,1.22c-0.54-0.18-0.97-0.3-1.38-0.46
					c-9.58-3.94-19.17-7.86-28.73-11.83c-3.04-1.26-2.6-0.42-2.71-3.92c-0.27-8.66-0.59-17.32-0.88-25.98
					c-0.02-0.43,0.02-0.88,0.04-1.49c0.5,0.18,0.78,0.26,1.06,0.38c10.2,4.19,20.39,8.39,30.6,12.56c0.78,0.32,1.11,0.7,1.13,1.57
					C985.51,115.38,985.84,124.7,986.15,134.01z"/>
				<path class="st2" d="M953.83,123.05c10.22,4.22,20.45,8.42,30.68,12.62c0.35,0.15,0.68,0.35,1.16,0.6
					c-0.84,0.71-1.55,1.33-2.28,1.93c-7.07,5.77-14.15,11.52-21.21,17.3c-0.63,0.51-1.11,0.57-1.82,0.27
					c-10.25-4.24-20.51-8.45-30.77-12.67c-0.27-0.11-0.51-0.26-0.91-0.46c0.33-0.32,0.55-0.56,0.8-0.76
					c7.6-6.2,15.2-12.4,22.79-18.6C952.78,122.86,953.2,122.79,953.83,123.05z"/>
				<polygon class="st2" points="921.88,104.46 921.88,108.43 909.52,108.43 909.52,141.32 904.31,141.32 904.31,108.43 
					891.94,108.43 891.94,104.46 				"/>
				<polygon class="st2" points="888.6,104.46 888.6,108.43 870.21,108.43 870.21,120.86 885.8,120.86 885.8,124.83 870.21,124.83 
					870.21,141.32 865,141.32 865,104.46 				"/>
				<path class="st2" d="M853.81,104.46v36.87h-5.37l-14.8-23.19l-4.42-7.62h-0.01h-0.24h-0.01c0.26,3.73,0.66,7.66,0.66,11.51v19.3
					h-4.93v-36.87h5.36l14.81,23.17l4.42,7.63h0.01h0.24h0.01c-0.26-3.71-0.66-7.87-0.66-11.73v-19.07H853.81z"/>
				<path class="st2" d="M848.88,123.53c0,3.86,0.4,8.02,0.66,11.73h-0.01C849.27,131.55,848.87,127.39,848.88,123.53l-0.01-19.07
					h0.01V123.53z"/>
				<polygon class="st2" points="833.63,118.14 829.21,110.52 829.22,110.52 833.64,118.14 848.44,141.33 848.43,141.33 				"/>
				<rect x="824.68" y="104.46" class="st2" width="0.01" height="36.87"/>
			</g>
			<g>
				<path class="st10" d="M824.69,104.46h5.36h0.01l14.81,23.17l4.42,7.63h0.24h0.01c-0.26-3.71-0.66-7.87-0.66-11.73v-19.07h4.93
					h0.01v36.87h-0.01h-5.37l-14.8-23.19l-4.42-7.62h-0.01h-0.24c0.26,3.73,0.66,7.66,0.66,11.51v19.3h-0.01h-4.93V104.46z"/>
				<polygon class="st10" points="888.6,104.46 888.6,108.43 870.21,108.43 870.21,120.86 885.8,120.86 885.8,124.83 870.21,124.83 
					870.21,141.32 865,141.32 865,104.46 				"/>
				<polygon class="st10" points="921.88,104.46 921.88,108.43 909.52,108.43 909.52,141.32 904.31,141.32 904.31,108.43 
					891.94,108.43 891.94,104.46 				"/>
				<path class="st10" d="M1233.13,105.33c-2.5-1.42-5.88-2.01-9.79-2.01h-12.81c0,1.28,0,2.57,0,3.86h0.01
					c1.73-0.02,3.45-0.05,5.19-0.06h6.86c2.39,0,4.38,0.24,5.93,0.81c0.9,0.32,1.65,0.75,2.25,1.3c0.25,0.24,0.48,0.5,0.68,0.78
					c0.14,0.2,0.26,0.4,0.37,0.61c0.42,0.84,0.64,1.85,0.64,3.06c0,4.79-3.51,7.11-9.87,7.11c-4.03-0.07-8.04-0.13-12.06-0.2
					c0,6.53,0,13.05,0,19.58h0.01h5.19v-15.58h7.39l0.01,0.01l9.83,15.57h5.9l-10.4-16.1c3.64-0.8,6.46-2.54,7.97-5.27
					c0.14-0.26,0.27-0.53,0.39-0.81"/>
				<path class="st10" d="M1237.39,116.21c0.07-0.31,0.12-0.63,0.17-0.96c0.02-0.16,0.03-0.34,0.05-0.51
					c0.03-0.34,0.04-0.69,0.04-1.05c0-1.44-0.21-2.7-0.61-3.81c-0.06-0.18-0.13-0.36-0.21-0.54c-0.15-0.34-0.32-0.67-0.51-0.99
					c-0.39-0.63-0.85-1.2-1.39-1.71c-0.53-0.49-1.13-0.93-1.79-1.3"/>
				<line class="st20" x1="951.05" y1="92.36" x2="927.15" y2="111.59"/>
				<line class="st20" x1="951.26" y1="98.53" x2="927.4" y2="117.73"/>
				<line class="st20" x1="951.2" y1="96.54" x2="927.46" y2="115.64"/>
				<line class="st20" x1="951.09" y1="94.34" x2="927.37" y2="113.42"/>
				<path class="st21" d="M928.75,140.75c7.97-6.41,15.94-12.82,23.91-19.23"/>
				<path class="st20" d="M928.32,138.81c7.97-6.41,15.94-12.82,23.91-19.23"/>
				<path class="st20" d="M928.11,136.65c7.97-6.41,15.94-12.82,23.91-19.23"/>
				<line class="st20" x1="951.42" y1="100.65" x2="927.52" y2="119.88"/>
				<line class="st20" x1="951.63" y1="106.82" x2="927.77" y2="126.02"/>
				<line class="st20" x1="951.56" y1="104.83" x2="927.82" y2="123.93"/>
				<line class="st20" x1="951.46" y1="102.63" x2="927.74" y2="121.71"/>
				<line class="st20" x1="951.69" y1="109.1" x2="927.79" y2="128.33"/>
				<line class="st20" x1="951.89" y1="115.27" x2="928.03" y2="134.47"/>
				<line class="st20" x1="951.83" y1="113.28" x2="928.09" y2="132.38"/>
				<line class="st20" x1="951.73" y1="111.08" x2="928.01" y2="130.16"/>
				<path class="st10" d="M1004.38,134.55c0.91,0.88,1.95,1.57,3.11,2.09"/>
				<path class="st10" d="M1001.74,130.85c0.58,1.24,1.32,2.34,2.19,3.26"/>
				<path class="st10" d="M1000.31,125.93c0.15,1.04,0.37,2.03,0.66,2.95c0.14,0.46,0.31,0.91,0.49,1.34"/>
				<polygon class="st10" points="1087.28,137.17 1069.42,137.17 1069.42,104.27 1064.22,104.27 1064.22,141.14 1087.28,141.14 				
					"/>
				<path class="st10" d="M1022.6,106.85c0.55,0.41,1.05,0.85,1.49,1.3h0.01l-2.85,3.06h-0.01c-2.16-2.07-4.86-3.48-8.29-3.48
					c-1.7,0-3.27,0.27-4.69,0.8c-0.4,0.15-0.78,0.32-1.16,0.51c-1.14,0.56-2.16,1.31-3.05,2.22c-2.52,2.59-3.96,6.48-3.96,11.36
					c0,1.16,0.08,2.26,0.22,3.31c0.15,1.04,0.38,2.03,0.66,2.95c0.15,0.46,0.31,0.91,0.49,1.34c0.09,0.22,0.18,0.43,0.28,0.63
					c0.59,1.24,1.32,2.33,2.19,3.26c0.15,0.15,0.3,0.3,0.45,0.44c0.91,0.87,1.95,1.57,3.11,2.09c1.55,0.69,3.32,1.05,5.26,1.05
					c0.24,0,0.48-0.01,0.72-0.02c3.55-0.18,6.31-1.67,8.76-4.11l2.84,2.92l0.01,0.02c-3.23,3.39-7.24,5.33-12.56,5.33
					c-2.23,0-4.34-0.35-6.26-1.01c-2.49-0.85-4.68-2.22-6.47-4.06c-3.18-3.27-5.09-8.04-5.09-14.02c0-2.97,0.49-5.65,1.37-8
					c0.9-2.36,2.19-4.38,3.81-6.03c3.24-3.3,7.78-5.11,12.97-5.11c1.86,0,3.57,0.31,5.11,0.81c0.51,0.17,1,0.36,1.47,0.58"/>
				<path class="st10" d="M1027.35,141.14l13.83-36.87h0.01h5.87l13.84,36.87h-5.51l-7.13-20.59c-1.47-4.12-2.78-8.17-4.1-12.43
					h-0.25c-1.27,4.28-2.58,8.3-4.05,12.43l-7.21,20.59H1027.35z"/>
				<path class="st10" d="M1111.88,108.24c0.01,0.01,0.01,0.02,0.01,0.03c0.03,0.05,0.05,0.1,0.06,0.16c0,0.01,0.01,0.03,0.01,0.04
					c0.07,0.52,0.14,1.04,0.21,1.58c0,0,0,0.09-0.01,0.24v0.01c-0.01,0.26-0.05,0.69-0.14,1.13c-0.01,0.04-0.02,0.08-0.04,0.12
					c-0.02,0.1-0.05,0.21-0.09,0.32c-0.37,1.07-1.3,2.55-2.78,4.01c0,8.42,0,16.84,0,25.26v0.01h4.94v-0.01v-19.29
					c0-3.52-0.33-7.1-0.59-10.53c-0.02-0.33-0.05-0.66-0.07-0.98h0.25l4.42,7.62l14.8,23.18l0.01,0.01h5.37v-36.87h-0.01h-4.93
					v19.07c0,3.86,0.4,8.02,0.66,11.73h-0.25l-0.01-0.02l-4.41-7.61l-14.81-23.17h-0.28"/>
				<path class="st10" d="M1156.52,136.6c-0.67,0.14-1.38,0.26-2.12,0.37c0,0-0.01,0-0.02,0c-0.49,0.07-1,0.14-1.52,0.21
					c-0.27,0.03-0.54,0.07-0.82,0.1c-4.09,0.51-7.51,0.17-9.76-0.2h-0.01c-0.02,1.35-0.05,2.7-0.08,4.05h0.01h10.46
					c6.17,0,10.94-1.71,14.17-4.89c3.22-3.18,4.91-7.82,4.91-13.67c0-1.84-0.16-3.55-0.49-5.13c-0.26-1.25-0.62-2.43-1.09-3.52
					c-0.23-0.54-0.49-1.06-0.76-1.55c-0.15-0.26-0.3-0.5-0.46-0.75c-0.3-0.47-0.63-0.93-0.98-1.36c-2.02-2.44-4.82-4.17-8.37-5.12
					c-0.48-0.14-0.98-0.25-1.49-0.35c-1.73-0.35-3.62-0.52-5.67-0.52h-10.23h-0.01c0,1.27-0.01,2.54-0.01,3.81h0.01
					c1.74,0.01,3.47,0.02,5.21,0.04h4.64c5.38,0,9.24,1.62,11.59,4.7c0.52,0.69,0.96,1.44,1.34,2.27c0.93,2.07,1.39,4.57,1.39,7.48
					c0,2.01,0.01,7.5-3.9,11.19h-0.01c-0.52,0.48-1.05,0.88-1.61,1.23c-1.29,0.8-2.71,1.27-4.3,1.61"/>
				<path class="st10" d="M1111.88,108.24h-16.06v11.55c3.16,0,6.31,0,9.48,0c0.02,1.33,0.04,2.65,0.05,3.97c-3.17,0-6.35,0-9.52,0
					v13.41c3.23,0,6.48,0,9.71,0c0,1.31,0,2.64,0,3.97c-4.98,0-9.95,0-14.93,0v-36.87h18.5h5.08v0.01v3.95v0.01H1111.88z"/>
				<path class="st10" d="M1185.59,103.32h5.87h0.01l13.84,36.85h-0.01h-5.5l-7.13-20.59c-1.47-4.12-2.78-8.16-4.1-12.41h-0.01
					h-0.24c-1.27,4.28-2.58,8.29-4.05,12.41l-7.21,20.59h-0.01h-5.29L1185.59,103.32z"/>
			</g>
		</g>
	</g>
	<defs>
		
			<filter id="Adobe_OpacityMaskFilter_00000073684739124420252270000003375276314860473221_" filterUnits="userSpaceOnUse" x="1107.07" y="83.93" width="13.37" height="15.27">
			
				<feColorMatrix  type="matrix" values="-1 0 0 0 1  0 -1 0 0 1  0 0 -1 0 1  0 0 0 1 0" color-interpolation-filters="sRGB" result="source"/>
			<feFlood  style="flood-color:white;flood-opacity:1" result="back"/>
			<feBlend  in="source" in2="back" mode="normal"/>
		</filter>
	</defs>
	
		<mask maskUnits="userSpaceOnUse" x="1107.07" y="83.93" width="13.37" height="15.27" id="SVGID_00000106850737494259066810000001165382811060888745_">
		<g style="filter:url(#Adobe_OpacityMaskFilter_00000073684739124420252270000003375276314860473221_);">
		</g>
	</mask>
	
		<rect x="1109.81" y="85.03" transform="matrix(0.866 -0.5 0.5 0.866 103.4337 569.147)" style="mask:url(#SVGID_00000106850737494259066810000001165382811060888745_);fill:#FFFFFF;" width="7.89" height="13.07"/>
	<defs>
		
			<filter id="Adobe_OpacityMaskFilter_00000136393095113150933970000013914867558757502874_" filterUnits="userSpaceOnUse" x="1107.86" y="108.68" width="7.96" height="8.83">
			
				<feColorMatrix  type="matrix" values="-1 0 0 0 1  0 -1 0 0 1  0 0 -1 0 1  0 0 0 1 0" color-interpolation-filters="sRGB" result="source"/>
			<feFlood  style="flood-color:white;flood-opacity:1" result="back"/>
			<feBlend  in="source" in2="back" mode="normal"/>
		</filter>
	</defs>
	
		<mask maskUnits="userSpaceOnUse" x="1107.86" y="108.68" width="7.96" height="8.83" id="SVGID_00000085226791361667059750000000784823486941341584_">
		<g style="filter:url(#Adobe_OpacityMaskFilter_00000136393095113150933970000013914867558757502874_);">
		</g>
	</mask>
	
		<rect x="1108.17" y="110.62" transform="matrix(0.5 0.866 -0.866 0.5 653.8648 -906.3369)" style="mask:url(#SVGID_00000085226791361667059750000000784823486941341584_);fill:#FFFFFF;" width="7.34" height="4.95"/>
	<defs>
		
			<filter id="Adobe_OpacityMaskFilter_00000088839229510880784080000002769241530549089959_" filterUnits="userSpaceOnUse" x="1113.76" y="83.47" width="0.65" height="0.65">
			
				<feColorMatrix  type="matrix" values="-1 0 0 0 1  0 -1 0 0 1  0 0 -1 0 1  0 0 0 1 0" color-interpolation-filters="sRGB" result="source"/>
			<feFlood  style="flood-color:white;flood-opacity:1" result="back"/>
			<feBlend  in="source" in2="back" mode="normal"/>
		</filter>
	</defs>
	
		<mask maskUnits="userSpaceOnUse" x="1113.76" y="83.47" width="0.65" height="0.65" id="SVGID_00000004514986726840844590000005832609248304439724_">
		<g style="filter:url(#Adobe_OpacityMaskFilter_00000088839229510880784080000002769241530549089959_);">
		</g>
	</mask>
	
		<rect x="1113.76" y="83.47" style="mask:url(#SVGID_00000004514986726840844590000005832609248304439724_);fill:#FFFFFF;" width="0.65" height="0.65"/>
</g>
</svg>
