<?xml version="1.0" standalone="no"?>
<!DOCTYPE svg PUBLIC "-//W3C//DTD SVG 20010904//EN"
 "http://www.w3.org/TR/2001/REC-SVG-20010904/DTD/svg10.dtd">
<svg version="1.0" xmlns="http://www.w3.org/2000/svg"
 width="512.000000pt" height="512.000000pt" viewBox="0 0 512.000000 512.000000"
 preserveAspectRatio="xMidYMid meet">

<g transform="translate(0.000000,512.000000) scale(0.100000,-0.100000)"
fill="#000000" stroke="none">
<path d="M310 5104 c-145 -39 -257 -153 -295 -300 -14 -54 -15 -302 -13 -2270
l3 -2209 23 -55 c46 -113 129 -196 242 -242 l55 -23 1539 -3 c1426 -2 1540 -1
1558 14 23 22 23 66 1 87 -10 8 -171 104 -358 212 -187 108 -355 210 -373 228
-51 49 -90 114 -112 185 -19 61 -20 95 -20 652 0 548 1 592 19 649 24 76 59
136 108 183 37 36 915 551 1039 609 36 17 90 33 134 38 52 7 78 15 87 28 11
14 13 196 11 963 l-3 945 -23 55 c-46 113 -129 196 -242 242 l-55 23 -1635 2
c-1416 2 -1642 0 -1690 -13z m1110 -404 c11 -11 20 -29 20 -40 0 -11 -9 -29
-20 -40 -19 -19 -33 -20 -500 -20 -467 0 -481 1 -500 20 -11 11 -20 29 -20 40
0 11 9 29 20 40 19 19 33 20 500 20 467 0 481 -1 500 -20z m2000 -480 c20 -20
20 -31 18 -721 l-3 -701 -385 -222 c-338 -194 -393 -229 -451 -287 -108 -108
-159 -237 -159 -401 l0 -88 -940 0 c-927 0 -940 0 -960 20 -20 20 -20 33 -20
1200 0 1167 0 1180 20 1200 20 20 33 20 1440 20 1408 0 1420 0 1440 -20z
m-980 -3000 l0 -60 -1000 0 c-987 0 -1000 0 -1020 20 -11 11 -20 29 -20 40 0
11 9 29 20 40 20 20 33 20 1020 20 l1000 0 0 -60z m12 -480 l15 -60 -1014 0
c-1000 0 -1013 0 -1033 20 -11 11 -20 29 -20 40 0 11 9 29 20 40 20 20 33 20
1019 20 l998 0 15 -60z"/>
<path d="M1905 3921 c-22 -10 -47 -27 -56 -37 -9 -10 -110 -181 -225 -379
-181 -314 -208 -367 -212 -411 -4 -54 18 -113 54 -145 11 -9 116 -72 234 -140
215 -124 215 -124 280 -124 65 0 65 0 280 124 118 68 223 131 234 140 36 32
58 91 54 145 -4 44 -31 97 -212 411 -115 198 -216 369 -225 379 -23 27 -90 56
-131 56 -19 0 -53 -9 -75 -19z"/>
<path d="M1439 2781 c-34 -34 -39 -82 -12 -121 9 -14 111 -139 227 -279 222
-268 247 -291 326 -291 79 0 104 23 326 291 116 140 218 265 227 279 44 63 -3
150 -80 150 -31 0 -73 -22 -243 -130 -114 -72 -216 -130 -229 -130 -13 0 -114
57 -231 130 -233 147 -257 155 -311 101z"/>
<path d="M4097 4562 c-16 -17 -17 -92 -17 -869 0 -796 1 -852 18 -871 17 -20
347 -214 392 -230 16 -6 33 -6 46 0 16 7 88 153 262 527 299 641 290 619 301
688 25 159 -54 333 -187 417 -66 41 -751 356 -775 356 -13 0 -31 -8 -40 -18z"/>
<path d="M3794 2722 c-22 -9 -252 -138 -509 -287 -513 -295 -546 -319 -584
-418 -21 -57 -21 -69 -21 -637 0 -568 0 -580 21 -637 38 -99 70 -123 583 -418
258 -148 488 -278 510 -287 50 -21 150 -23 202 -4 61 22 995 564 1032 599 18
18 45 57 60 87 l27 55 0 605 0 605 -27 55 c-15 30 -42 69 -60 87 -37 35 -971
577 -1032 599 -52 19 -152 17 -202 -4z m-642 -994 c9 -7 73 -107 142 -223
l126 -210 0 203 c0 189 1 203 20 222 11 11 29 20 40 20 11 0 29 -9 40 -20 19
-19 20 -33 20 -340 0 -307 -1 -321 -20 -340 -23 -23 -49 -26 -72 -7 -9 6 -73
107 -142 222 l-126 210 0 -202 c0 -190 -1 -204 -20 -223 -11 -11 -29 -20 -40
-20 -11 0 -29 9 -40 20 -19 19 -20 33 -20 340 0 307 1 321 20 340 23 23 49 26
72 8z m968 -8 c11 -11 20 -29 20 -40 0 -11 -9 -29 -20 -40 -18 -18 -33 -20
-180 -20 l-160 0 0 -100 0 -100 140 0 c127 0 142 -2 160 -20 11 -11 20 -29 20
-40 0 -11 -9 -29 -20 -40 -18 -18 -33 -20 -160 -20 l-140 0 0 -120 c0 -107 -2
-122 -20 -140 -11 -11 -29 -20 -40 -20 -11 0 -29 9 -40 20 -19 19 -20 33 -20
340 0 307 1 321 20 340 19 19 33 20 220 20 187 0 201 -1 220 -20z m600 0 c11
-11 20 -29 20 -40 0 -41 -34 -60 -110 -60 l-70 0 0 -280 c0 -267 -1 -281 -20
-300 -25 -25 -55 -25 -80 0 -19 19 -20 33 -20 300 l0 280 -70 0 c-76 0 -110
19 -110 60 0 11 9 29 20 40 19 19 33 20 220 20 187 0 201 -1 220 -20z"/>
</g>
</svg>
