<?xml version="1.0" ?><!DOCTYPE svg  PUBLIC '-//W3C//DTD SVG 1.1//EN'  'http://www.w3.org/Graphics/SVG/1.1/DTD/svg11.dtd'><svg enable-background="new 0 0 64 64" height="64px" id="Layer_1" version="1.1" viewBox="0 0 64 64" width="64px" xml:space="preserve" xmlns="http://www.w3.org/2000/svg" xmlns:xlink="http://www.w3.org/1999/xlink"><path d="M52.602,15.108c1.025-1.025,1.026-2.689,0-3.715c-1.027-1.027-2.69-1.026-3.716-0.001  c-4.788-4.788-12.551-4.787-17.339,0.001L19.871,23.07c-1.026,1.026-2.155,1.418-4.423,0.706c-1.385-0.434-3.397-0.318-4.423,0.708  c-1.026,1.026-2.534,2.534-2.534,2.534l0.013,0.011c-2.217,2.469,1.017,9.554,7.388,16.633c0.211-1.08,0.645-2.123,1.292-3.063  c-4.852-5.661-6.485-10.015-6.404-11.45c0.017,0,0.034-0.001,0.053-0.001c2.554,0,8.553,3.285,14.641,9.373  c0.358,0.358,0.694,0.709,1.028,1.06c-0.808-0.362-1.675-0.55-2.545-0.55c-1.592,0-3.184,0.607-4.398,1.822  c-0.397,0.397-0.722,0.837-0.99,1.302c-0.001-0.001-0.001-0.002-0.002-0.002c-0.006,0.01-0.009,0.021-0.015,0.032  c-0.29,0.511-0.501,1.053-0.635,1.611c-0.008,0.031-0.016,0.062-0.023,0.093c-0.063,0.28-0.108,0.562-0.132,0.847  c0,0.006,0,0.012-0.001,0.018c-0.022,0.275-0.023,0.55-0.008,0.825c0.001,0.021-0.002,0.041-0.001,0.062  c0.001,0.001,0.003,0.003,0.004,0.004c0.092,1.458,0.688,2.891,1.803,4.006c1.214,1.214,2.806,1.822,4.398,1.822  c0.156,0,0.313-0.011,0.469-0.022c0,0,0,0,0,0c0,0,0.001,0,0.001,0c0.296-0.022,0.59-0.067,0.881-0.131  c0.008-0.002,0.016-0.004,0.025-0.006c0.581-0.131,1.146-0.347,1.677-0.647c0.004-0.002,0.008-0.005,0.013-0.007  c0.476-0.27,0.927-0.602,1.332-1.008c1.653-1.653,2.178-4.005,1.581-6.105c3.717,4.777,5,8.374,4.928,9.654  c-0.017,0-0.034,0.001-0.053,0.001c-1.15,0-3.001-0.672-5.241-1.959c-0.842,0.791-1.822,1.384-2.886,1.758  c3.206,2.042,6.09,3.201,8.126,3.201c0.902,0,1.632-0.234,2.158-0.708l0.008,0.013c0,0,1.507-1.507,2.534-2.534  c1.025-1.025,0.757-2.973,0.708-4.423c-0.052-1.52-0.319-3.396,0.707-4.422l11.678-11.678C57.39,27.66,57.391,19.896,52.602,15.108z  "/></svg>