<svg width="90" height="20" viewBox="0 0 90 20" xmlns="http://www.w3.org/2000/svg" xmlns:xlink="http://www.w3.org/1999/xlink">
    <defs>
        <path id="y4bubkib7a" d="M0 0h14.025v19.535H0z"/>
        <path id="yap2hw62oc" d="M0 0h14.025v19.535H0z"/>
    </defs>
    <g fill="none" fill-rule="evenodd">
        <g transform="translate(0 .465)">
            <mask id="jb0r93aplb" fill="#fff">
                <use xlink:href="#y4bubkib7a"/>
            </mask>
            <path d="M13.558 6.25c0-3.692-2.367-6.25-7.48-6.25H0v2.79h7.042c2.045 0 3.71 1.076 3.71 3.634C10.753 8.954 9.03 10 6.985 10H0v2.792l2.805-.001h3.068l4.88 6.744h3.272l-5.054-7.006c2.922-.785 4.587-3.256 4.587-6.279" fill="#FFF" mask="url(#jb0r93aplb)"/>
        </g>
        <path fill="#FFF" d="M16.25 20h3.04l1.9-4.186h.01L25.6 6.163l4.403 9.65h.01L31.913 20h3.039l-9.35-20zM42.844.465h-5.873v2.79h6.604c3.828 0 6.487 3.11 6.487 6.977 0 3.867-2.66 6.977-6.487 6.977H36.97V20h5.874c6.399 0 10.022-4.36 10.022-9.767 0-5.406-3.477-9.767-10.023-9.767M54.4 20h3.04l1.9-4.186h.01l4.401-9.651 4.403 9.65h.01L70.063 20h3.039l-9.35-20z"/>
        <g transform="translate(75.975 .465)">
            <mask id="7dx2yn7iid" fill="#fff">
                <use xlink:href="#yap2hw62oc"/>
            </mask>
            <path d="M8.97 12.53c2.923-.786 4.588-3.257 4.588-6.28 0-3.692-2.367-6.25-7.48-6.25H0v2.79h7.042c2.045 0 3.71 1.076 3.71 3.634C10.753 8.954 9.03 10 6.985 10H0v2.739l2.805.052h3.068l4.88 6.744h3.272l-5.054-7.006z" fill="#FFF" mask="url(#7dx2yn7iid)"/>
        </g>
    </g>
</svg>
