<svg width="18" height="18" viewBox="0 0 18 18" xmlns="http://www.w3.org/2000/svg" xmlns:xlink="http://www.w3.org/1999/xlink">
    <defs>
        <path id="0r5yooliqa" d="M0 0h18v18H0z"/>
    </defs>
    <g fill="none" fill-rule="evenodd" opacity=".404">
        <mask id="2k0cvyai8b" fill="#fff">
            <use xlink:href="#0r5yooliqa"/>
        </mask>
        <path d="M14.365 8.096c.023-3.455-2.775-6.27-6.252-6.292a6.268 6.268 0 0 0-6.32 6.244 6.284 6.284 0 0 0 6.271 6.32c3.461.02 6.278-2.785 6.3-6.272m0 5.06c.075.053.152.093.211.151 1.039 1.035 2.074 2.072 3.112 3.106.258.258.376.556.28.916a.893.893 0 0 1-1.444.459c-.06-.05-.113-.105-.168-.16a12909.94 12909.94 0 0 0-3.08-3.076c-.05-.05-.1-.096-.159-.15-2.119 1.595-4.465 2.142-7.044 1.497-1.978-.496-3.54-1.624-4.686-3.305C-.882 9.27-.311 4.714 2.69 2.07c3.126-2.754 7.632-2.767 10.767-.004 3.084 2.718 3.709 7.526.907 11.09" fill="#FFF" mask="url(#2k0cvyai8b)"/>
    </g>
</svg>
