<svg width="32" height="32" viewBox="0 0 32 32" xmlns="http://www.w3.org/2000/svg" xmlns:xlink="http://www.w3.org/1999/xlink">
    <defs>
        <path id="z23we0p9na" d="M0 0h2.191v13.177H0z"/>
        <path id="1zywh8qg9c" d="M0 0h2.203v8.787H0z"/>
        <path id="z2myig9vwe" d="M0 0h2.203v8.786H0z"/>
    </defs>
    <g fill="none" fill-rule="evenodd">
        <path d="M16 .75c4.211 0 8.024 1.707 10.783 4.467A15.202 15.202 0 0 1 31.25 16c0 4.211-1.707 8.024-4.467 10.783A15.202 15.202 0 0 1 16 31.25a15.202 15.202 0 0 1-10.783-4.467A15.202 15.202 0 0 1 .75 16c0-4.211 1.707-8.024 4.467-10.783A15.202 15.202 0 0 1 16 .75z" stroke="#FFF" stroke-width="1.5"/>
        <g transform="translate(15.093 9.6)">
            <mask id="kkh3lki4ab" fill="#fff">
                <use xlink:href="#z23we0p9na"/>
            </mask>
            <path d="M.004 6.57C.004 4.76 0 2.95.006 1.141.009.345.705-.178 1.434.055c.428.137.725.521.753.974.002.034.004.069.004.103 0 3.636.002 7.271-.001 10.907-.001.553-.303.955-.797 1.096A1.08 1.08 0 0 1 .01 12.15c-.02-.48-.007-.96-.007-1.44V6.57" fill="#FFF" mask="url(#kkh3lki4ab)"/>
        </g>
        <g transform="translate(9.6 13.993)">
            <mask id="kjncz69r8d" fill="#fff">
                <use xlink:href="#1zywh8qg9c"/>
            </mask>
            <path d="M.002 4.394c0-1.106-.006-2.21.003-3.316C.01.52.409.093.965.01a1.082 1.082 0 0 1 1.166.728c.045.135.068.285.068.428.004 2.15.005 4.302.002 6.452-.002.631-.404 1.096-.98 1.161a1.096 1.096 0 0 1-1.193-.867 1.564 1.564 0 0 1-.025-.332C0 6.52.002 5.456.002 4.394" fill="#FFF" mask="url(#kjncz69r8d)"/>
        </g>
        <g transform="translate(20.578 13.992)">
            <mask id="n6v2i6r6vf" fill="#fff">
                <use xlink:href="#z2myig9vwe"/>
            </mask>
            <path d="M2.202 4.392c0 1.096.004 2.194-.002 3.29-.003.52-.321.927-.808 1.063C.92 8.876.409 8.69.175 8.258c-.1-.187-.165-.42-.166-.633-.012-2.152-.01-4.302-.006-6.453C.004.495.481-.003 1.107 0c.63.002 1.093.498 1.095 1.178.002 1.072 0 2.143 0 3.214" fill="#FFF" mask="url(#n6v2i6r6vf)"/>
        </g>
    </g>
</svg>
