<svg width="32" height="32" viewBox="0 0 32 32" xmlns="http://www.w3.org/2000/svg">
    <g stroke="#FFF" fill="none" fill-rule="evenodd">
        <path d="M16 1c4.142 0 7.892 1.679 10.606 4.394A14.953 14.953 0 0 1 31 16c0 4.142-1.679 7.892-4.394 10.606A14.953 14.953 0 0 1 16 31a14.953 14.953 0 0 1-10.606-4.394A14.953 14.953 0 0 1 1 16c0-4.142 1.679-7.892 4.394-10.606A14.953 14.953 0 0 1 16 1z" stroke-width="2"/>
        <path d="M15.097 16.17c0-1.81-.004-3.619.002-5.428.003-.797.7-1.32 1.428-1.087.428.137.726.521.753.974.002.034.004.069.004.103 0 3.636.002 7.271-.001 10.907-.001.553-.302.955-.797 1.096a1.08 1.08 0 0 1-1.382-.985c-.019-.48-.007-.96-.007-1.44v-4.14M9.602 18.387c0-1.106-.006-2.21.003-3.316.005-.557.404-.985.96-1.067a1.082 1.082 0 0 1 1.166.729c.045.135.068.284.068.427.004 2.15.005 4.302.002 6.452-.002.631-.404 1.096-.98 1.161a1.096 1.096 0 0 1-1.193-.867 1.564 1.564 0 0 1-.025-.332c-.002-1.062-.001-2.125-.001-3.187M22.78 18.383c0 1.097.004 2.194-.002 3.29-.003.521-.321.928-.808 1.064-.472.13-.983-.056-1.217-.487-.1-.187-.165-.42-.166-.633-.012-2.152-.01-4.303-.006-6.454 0-.676.478-1.174 1.104-1.171.63.002 1.093.498 1.095 1.177.002 1.072 0 2.143 0 3.214" fill="#FFF"/>
    </g>
</svg>
