<?xml version="1.0" encoding="utf-8"?>
<!-- Generator: Adobe Illustrator 27.2.0, SVG Export Plug-In . SVG Version: 6.00 Build 0)  -->
<svg version="1.1" id="Layer_1" xmlns="http://www.w3.org/2000/svg" xmlns:xlink="http://www.w3.org/1999/xlink" x="0px" y="0px"
	 viewBox="0 0 595.28 841.89" style="enable-background:new 0 0 595.28 841.89;" xml:space="preserve">
<style type="text/css">
	.st0{fill:#384398;}
	.st1{fill:none;stroke:#384398;stroke-miterlimit:10;}
	.st2{fill:#384FA2;}
	.st3{fill:#2B358A;stroke:#2B358A;stroke-miterlimit:10;}
	.st4{fill:#FFFFFF;stroke:#2E3192;stroke-miterlimit:10;}
	.st5{filter:url(#Adobe_OpacityMaskFilter);}
	.st6{fill:#384398;stroke:#FFFFFF;stroke-miterlimit:10;}
	.st7{fill:none;stroke:#FFFFFF;stroke-miterlimit:10;}
	.st8{fill:#FFFFFF;}
	.st9{fill:#F9FBFE;stroke:#FFFFFF;stroke-miterlimit:10;}
	.st10{fill:#FDFEFE;}
	.st11{mask:url(#XMLID_00000111160187225354007270000018141716040195265451_);}
	.st12{filter:url(#Adobe_OpacityMaskFilter_00000027566898408707828110000002517469230492602301_);}
	.st13{mask:url(#XMLID_00000030458039418678593900000016074053707711137698_);}
</style>
<g>
	<g id="XMLID_00000084509305245373141520000007744984426573574073_">
		<g>
			<polygon class="st0" points="187.74,170.72 187.74,174.69 175.38,174.69 175.38,207.58 170.17,207.58 170.17,174.69 
				157.8,174.69 157.8,170.72 			"/>
			<polygon class="st0" points="154.46,170.72 154.46,174.69 136.07,174.69 136.07,187.12 151.66,187.12 151.66,191.09 
				136.07,191.09 136.07,207.58 130.86,207.58 130.86,170.72 			"/>
			<path class="st0" d="M119.67,170.72v36.87h-5.38l-14.8-23.19l-4.42-7.62h-0.25c0.26,3.73,0.66,7.66,0.66,11.51v19.3h-4.94v-36.87
				h5.37l14.81,23.17l4.42,7.63h0.25c-0.26-3.71-0.66-7.87-0.66-11.73v-19.07H119.67z"/>
		</g>
		<g>
			<path class="st1" d="M90.55,170.72h5.37l14.81,23.17l4.42,7.63h0.25c-0.26-3.71-0.66-7.87-0.66-11.73v-19.07h4.94v36.87h-5.38
				l-14.8-23.19l-4.42-7.62h-0.25c0.26,3.73,0.66,7.66,0.66,11.51v19.3h-4.94V170.72z"/>
			<polygon class="st1" points="130.86,170.72 154.46,170.72 154.46,174.69 136.07,174.69 136.07,187.12 151.66,187.12 
				151.66,191.09 136.07,191.09 136.07,207.58 130.86,207.58 			"/>
			<polygon class="st1" points="170.17,174.69 157.8,174.69 157.8,170.72 187.74,170.72 187.74,174.69 175.38,174.69 175.38,207.58 
				170.17,207.58 			"/>
		</g>
	</g>
	<g id="XMLID_00000076565309181830924340000000142484048820939702_">
		<g>
			<path class="st0" d="M494.32,190.33l10.41,16.11h-5.9l-9.84-15.58h-7.39v15.58h-5.2c0-6.53,0-13.05,0-19.58
				c4.02,0.07,8.03,0.13,12.06,0.2c6.36,0,9.87-2.32,9.87-7.11c0-4.85-3.51-6.56-9.87-6.56h-6.86c-1.74,0.01-3.47,0.04-5.2,0.06
				c0-1.29,0-2.58,0-3.86h12.81c8.33,0,14.31,2.69,14.31,10.37C503.51,185.7,499.86,189.11,494.32,190.33z"/>
		</g>
		<g>
			<path class="st1" d="M494.32,190.33c5.54-1.22,9.19-4.63,9.19-10.38c0-7.68-5.98-10.37-14.31-10.37h-12.81c0,1.28,0,2.57,0,3.86
				c1.73-0.02,3.46-0.05,5.2-0.06h6.86c6.36,0,9.87,1.72,9.87,6.56c0,4.79-3.51,7.11-9.87,7.11c-4.03-0.07-8.04-0.13-12.06-0.2
				c0,6.53,0,13.05,0,19.58h5.2v-15.58h7.39l9.84,15.58h5.9L494.32,190.33z"/>
		</g>
	</g>
	<g>
		<path class="st0" d="M194.54,208.9c0.33-0.32,0.55-0.56,0.8-0.76c7.6-6.2,15.2-12.4,22.79-18.6c0.51-0.42,0.93-0.49,1.56-0.23
			c10.22,4.22,20.45,8.42,30.68,12.62c0.35,0.15,0.68,0.35,1.16,0.6c-0.84,0.71-1.55,1.33-2.28,1.93
			c-7.07,5.77-14.15,11.52-21.21,17.3c-0.63,0.51-1.11,0.57-1.82,0.27c-10.25-4.24-20.51-8.45-30.77-12.67
			C195.18,209.25,194.94,209.1,194.54,208.9z"/>
		<path class="st2" d="M218.3,157.81c0.5,0.18,0.78,0.26,1.06,0.38c10.2,4.19,20.39,8.39,30.6,12.56c0.78,0.32,1.11,0.7,1.13,1.57
			c0.28,9.32,0.61,18.64,0.92,27.95c0.01,0.35-0.03,0.7-0.05,1.22c-0.54-0.18-0.97-0.3-1.38-0.46c-9.58-3.94-19.17-7.86-28.73-11.83
			c-3.04-1.26-2.6-0.42-2.71-3.92c-0.27-8.66-0.59-17.32-0.88-25.98C218.24,158.87,218.28,158.42,218.3,157.81z"/>
	</g>
	<path class="st3" d="M193.01,177.85c7.97-6.41,15.93-12.82,23.9-19.23"/>
	<path class="st3" d="M193.26,183.99c7.95-6.4,15.91-12.8,23.86-19.2"/>
	<path class="st3" d="M193.32,181.9c7.91-6.37,15.82-12.73,23.74-19.1"/>
	<path class="st3" d="M193.23,179.68c7.91-6.36,15.81-12.72,23.72-19.08"/>
	<path class="st4" d="M194.61,207.01c7.97-6.41,15.94-12.82,23.91-19.23"/>
	<path class="st3" d="M194.18,205.07c7.97-6.41,15.94-12.82,23.91-19.23"/>
	<path class="st3" d="M193.97,202.91c7.97-6.41,15.94-12.82,23.91-19.23"/>
	<path class="st3" d="M193.38,186.14c7.97-6.41,15.93-12.82,23.9-19.23"/>
	<path class="st3" d="M193.63,192.28c7.95-6.4,15.91-12.8,23.86-19.2"/>
	<path class="st3" d="M193.68,190.19c7.91-6.37,15.82-12.73,23.74-19.1"/>
	<path class="st3" d="M193.6,187.97c7.91-6.36,15.81-12.72,23.72-19.08"/>
	<path class="st3" d="M193.65,194.59c7.97-6.41,15.93-12.82,23.9-19.23"/>
	<path class="st3" d="M193.89,200.73c7.95-6.4,15.91-12.8,23.86-19.2"/>
	<path class="st3" d="M193.95,198.64c7.91-6.37,15.82-12.73,23.74-19.1"/>
	<path class="st3" d="M193.87,196.42c7.91-6.36,15.81-12.72,23.72-19.08"/>
	<defs>
		<filter id="Adobe_OpacityMaskFilter" filterUnits="userSpaceOnUse" x="260.06" y="169.08" width="211.82" height="39.49">
			
				<feColorMatrix  type="matrix" values="-1 0 0 0 1  0 -1 0 0 1  0 0 -1 0 1  0 0 0 1 0" color-interpolation-filters="sRGB" result="source"/>
			<feFlood  style="flood-color:white;flood-opacity:1" result="back"/>
			<feBlend  in="source" in2="back" mode="normal"/>
		</filter>
	</defs>
	
		<mask maskUnits="userSpaceOnUse" x="260.06" y="169.08" width="211.82" height="39.49" id="XMLID_00000172400659203545969530000015145215316288224389_">
		<g class="st5">
			<line class="st6" x1="377.7" y1="175.41" x2="381.15" y2="182.19"/>
			<line class="st7" x1="376.18" y1="175.7" x2="378.22" y2="175.7"/>
			<rect x="374.33" y="180.01" class="st8" width="6.14" height="5.32"/>
			
				<rect x="375.47" y="177.03" transform="matrix(0.9104 -0.4137 0.4137 0.9104 -40.1531 172.0495)" class="st9" width="3.4" height="3.4"/>
			
				<rect x="376.39" y="180.56" transform="matrix(0.8034 -0.5954 0.5954 0.8034 -36.9844 262.6517)" class="st10" width="5.78" height="13.55"/>
		</g>
	</mask>
	
		<g id="XMLID_00000012470330414864590830000008297511627542897318_" style="mask:url(#XMLID_00000172400659203545969530000015145215316288224389_);">
		<g>
			<path class="st0" d="M457.32,169.58l13.84,36.85h-5.51l-7.13-20.59c-1.47-4.12-2.78-8.16-4.1-12.41h-0.25
				c-1.27,4.28-2.58,8.29-4.05,12.41l-7.21,20.59h-5.3l13.84-36.85H457.32z"/>
			<path class="st0" d="M437.61,188.83c0,11.7-6.74,18.56-19.08,18.56h-10.47c0.04-1.35,0.06-2.7,0.08-4.05
				c2.25,0.37,5.67,0.71,9.77,0.2c4.36-0.54,7.66-0.96,10.41-3.52c3.92-3.68,3.91-9.18,3.91-11.19c0-9.32-4.76-14.45-14.32-14.45
				h-4.64c-1.74-0.01-3.48-0.02-5.22-0.04c0-1.28,0.01-2.55,0.01-3.81h10.24C430.87,170.53,437.61,177.12,437.61,188.83z"/>
			<path class="st0" d="M404.09,170.53v36.87h-5.37l-14.81-23.19l-4.42-7.62h-0.25l-1.22-0.04c0.01-0.15,0.01-0.25,0.01-0.25
				c-0.07-0.53-0.14-1.05-0.21-1.58c-0.02-0.08-0.05-0.15-0.08-0.23h2.31v-3.97h0.28l14.81,23.17l4.42,7.63h0.25
				c-0.26-3.71-0.66-7.87-0.66-11.73v-19.07H404.09z"/>
			<path class="st0" d="M380.05,170.53v3.97h-2.31c-0.28-0.91-0.77-1.72-1.45-2.39c-0.4-0.31-0.79-0.62-1.2-0.92
				c-0.05-0.02-0.09-0.05-0.13-0.07v-0.58H380.05z"/>
			<path class="st0" d="M379.91,188.1v19.3h-4.94c0-8.42,0-16.85,0-25.27c1.69-1.67,2.67-3.36,2.91-4.45
				c0.09-0.44,0.13-0.86,0.14-1.13l1.22,0.04C379.51,180.32,379.91,184.25,379.91,188.1z"/>
			<path class="st0" d="M377.74,174.5h-16.06v11.55c3.16,0,6.31,0,9.48,0c0.02,1.33,0.04,2.65,0.05,3.97c-3.17,0-6.35,0-9.52,0
				v13.41c3.23,0,6.48,0,9.71,0c0,1.31,0,2.64,0,3.97c-4.98,0-9.95,0-14.93,0v-36.87h18.5v0.58c0.04,0.02,0.08,0.05,0.13,0.07
				c0.4,0.31,0.79,0.62,1.2,0.92C376.97,172.78,377.46,173.59,377.74,174.5z"/>
			<polygon class="st0" points="353.14,203.43 353.14,207.4 330.08,207.4 330.08,170.53 335.28,170.53 335.28,203.43 			"/>
			<path class="st0" d="M312.92,170.53l13.84,36.87h-5.51l-7.13-20.59c-1.47-4.12-2.78-8.17-4.1-12.43h-0.25
				c-1.27,4.28-2.58,8.3-4.05,12.43l-7.21,20.59h-5.3l13.84-36.87H312.92z"/>
			<path class="st0" d="M288.08,199.8l2.85,2.94c-3.23,3.39-7.24,5.33-12.56,5.33c-10.19,0-17.82-7.11-17.82-19.07
				c0-11.89,7.77-19.14,18.15-19.14c4.96,0,8.86,2.18,11.25,4.55l-2.85,3.06c-2.16-2.07-4.86-3.48-8.3-3.48
				c-7.74,0-12.86,5.71-12.86,14.89c0,9.26,4.9,15.07,12.66,15.07C282.5,203.94,285.47,202.41,288.08,199.8z"/>
		</g>
		<g>
			<polygon class="st1" points="335.28,203.43 335.28,170.53 330.08,170.53 330.08,207.4 353.14,207.4 353.14,203.43 			"/>
			<path class="st1" d="M260.56,189c0-11.89,7.77-19.14,18.15-19.14c4.96,0,8.86,2.18,11.25,4.55l-2.85,3.06
				c-2.16-2.07-4.86-3.48-8.3-3.48c-7.74,0-12.86,5.71-12.86,14.89c0,9.26,4.9,15.07,12.66,15.07c3.9,0,6.87-1.53,9.48-4.13
				l2.85,2.94c-3.23,3.39-7.24,5.33-12.56,5.33C268.19,208.07,260.56,200.96,260.56,189z"/>
			<path class="st1" d="M307.04,170.53h5.88l13.84,36.87h-5.51l-7.13-20.59c-1.47-4.12-2.78-8.17-4.1-12.43h-0.25
				c-1.27,4.28-2.58,8.3-4.05,12.43l-7.21,20.59h-5.3L307.04,170.53z"/>
			<path class="st1" d="M377.74,174.5c0.04,0.07,0.06,0.14,0.08,0.23c0.07,0.52,0.14,1.04,0.21,1.58c0,0,0,0.09-0.01,0.25
				c-0.01,0.26-0.05,0.69-0.14,1.13c-0.25,1.09-1.22,2.78-2.91,4.45c0,8.42,0,16.85,0,25.27h4.94v-19.3c0-3.85-0.4-7.78-0.66-11.51
				h0.25l4.42,7.62l14.81,23.19h5.37v-36.87h-4.94v19.07c0,3.86,0.4,8.02,0.66,11.73h-0.25l-4.42-7.63l-14.81-23.17h-0.28"/>
			<path class="st1" d="M418.29,170.53h-10.24c0,1.27-0.01,2.54-0.01,3.81c1.74,0.01,3.48,0.02,5.22,0.04h4.64
				c9.56,0,14.32,5.13,14.32,14.45c0,2.01,0.01,7.51-3.91,11.19c-2.75,2.56-6.05,2.97-10.41,3.52c-4.1,0.51-7.52,0.17-9.77-0.2
				c-0.02,1.35-0.05,2.7-0.08,4.05h10.47c12.34,0,19.08-6.86,19.08-18.56C437.61,177.12,430.87,170.53,418.29,170.53z"/>
			<path class="st1" d="M377.74,174.5h-16.06v11.55c3.16,0,6.31,0,9.48,0c0.02,1.33,0.04,2.65,0.05,3.97c-3.17,0-6.35,0-9.52,0
				v13.41c3.23,0,6.48,0,9.71,0c0,1.31,0,2.64,0,3.97c-4.98,0-9.95,0-14.93,0v-36.87h18.5h5.08v3.97H377.74z"/>
			<path class="st1" d="M451.45,169.58h5.88l13.84,36.85h-5.51l-7.13-20.59c-1.47-4.12-2.78-8.16-4.1-12.41h-0.25
				c-1.27,4.28-2.58,8.29-4.05,12.41l-7.21,20.59h-5.3L451.45,169.58z"/>
		</g>
	</g>
	<rect x="373.79" y="145.29" class="st10" width="0.43" height="0.43"/>
</g>
<g>
	<g>
		<path class="st0" d="M225.55,519.8c0.88-0.83,1.44-1.46,2.1-1.98c19.94-16.14,39.89-32.26,59.82-48.42
			c1.34-1.08,2.44-1.28,4.1-0.61c26.82,10.99,53.68,21.91,80.53,32.85c0.93,0.38,1.79,0.91,3.04,1.56
			c-2.22,1.86-4.08,3.47-5.99,5.01c-18.56,15.01-37.15,29.98-55.67,45.03c-1.64,1.34-2.92,1.47-4.78,0.71
			c-26.9-11.03-53.84-21.98-80.77-32.97C227.22,520.71,226.58,520.32,225.55,519.8z"/>
		<path class="st2" d="M287.92,386.84c1.31,0.46,2.05,0.69,2.77,0.98c26.77,10.91,53.52,21.85,80.32,32.7
			c2.04,0.83,2.91,1.82,2.97,4.08c0.73,24.26,1.6,48.51,2.41,72.76c0.03,0.91-0.08,1.83-0.14,3.18c-1.41-0.47-2.54-0.77-3.62-1.21
			c-25.15-10.24-50.31-20.46-75.42-30.78c-7.99-3.29-6.82-1.08-7.11-10.2c-0.72-22.54-1.55-45.07-2.32-67.61
			C287.75,389.58,287.86,388.42,287.92,386.84z"/>
	</g>
	<path class="st3" d="M221.53,438.99c20.91-16.68,41.82-33.37,62.74-50.05"/>
	<path class="st3" d="M222.18,454.97c20.88-16.65,41.75-33.31,62.63-49.96"/>
	<path class="st3" d="M222.33,449.53c20.77-16.57,41.54-33.14,62.31-49.71"/>
	<path class="st3" d="M222.11,443.75c20.75-16.56,41.51-33.11,62.26-49.67"/>
	<path class="st4" d="M225.71,514.88c20.92-16.69,41.84-33.38,62.75-50.06"/>
	<path class="st3" d="M224.59,509.85c20.92-16.69,41.84-33.38,62.75-50.06"/>
	<path class="st3" d="M224.04,504.21c20.92-16.69,41.84-33.38,62.75-50.06"/>
	<path class="st3" d="M222.49,460.57c20.91-16.68,41.82-33.37,62.74-50.05"/>
	<path class="st3" d="M223.14,476.56c20.88-16.65,41.75-33.31,62.63-49.96"/>
	<path class="st3" d="M223.29,471.11c20.77-16.57,41.54-33.14,62.31-49.71"/>
	<path class="st3" d="M223.07,465.34c20.75-16.56,41.51-33.11,62.26-49.67"/>
	<path class="st3" d="M223.19,482.57c20.91-16.68,41.82-33.37,62.74-50.05"/>
	<path class="st3" d="M223.84,498.56c20.88-16.65,41.75-33.31,62.63-49.96"/>
	<path class="st3" d="M223.99,493.11c20.77-16.57,41.54-33.14,62.31-49.71"/>
	<path class="st3" d="M223.77,487.34c20.75-16.56,41.51-33.11,62.26-49.67"/>
</g>
<g>
	<g id="XMLID_00000053541165167728442990000004631391343787381130_">
		<g>
			<polygon class="st0" points="216.64,576.26 216.64,580.27 204.11,580.27 204.11,613.57 198.84,613.57 198.84,580.27 
				186.31,580.27 186.31,576.26 			"/>
			<polygon class="st0" points="182.93,576.26 182.93,580.27 164.32,580.27 164.32,592.85 180.1,592.85 180.1,596.88 164.32,596.88 
				164.32,613.57 159.06,613.57 159.06,576.26 			"/>
			<path class="st0" d="M147.73,576.26v37.31h-5.44l-14.99-23.48l-4.47-7.71h-0.25c0.26,3.78,0.67,7.76,0.67,11.65v19.53h-5v-37.31
				h5.44l14.98,23.45l4.47,7.72h0.25c-0.26-3.77-0.67-7.96-0.67-11.87v-19.3H147.73z"/>
		</g>
		<g>
			<path class="st1" d="M118.24,576.26h5.44l14.98,23.45l4.47,7.72h0.25c-0.26-3.77-0.67-7.96-0.67-11.87v-19.3h5.01v37.31h-5.44
				l-14.99-23.48l-4.47-7.71h-0.25c0.26,3.78,0.67,7.76,0.67,11.65v19.53h-5V576.26z"/>
			<polygon class="st1" points="159.06,576.26 182.93,576.26 182.93,580.27 164.32,580.27 164.32,592.85 180.1,592.85 180.1,596.88 
				164.32,596.88 164.32,613.57 159.06,613.57 			"/>
			<polygon class="st1" points="198.84,580.27 186.31,580.27 186.31,576.26 216.64,576.26 216.64,580.27 204.11,580.27 
				204.11,613.57 198.84,613.57 			"/>
		</g>
	</g>
	<g id="XMLID_00000162342756254348989410000013303913553086437258_">
		<g>
			<path class="st0" d="M469.15,596.29l10.55,16.31h-5.97l-9.98-15.77h-7.48v15.77H451c0-6.61,0-13.21,0-19.82
				c4.06,0.07,8.14,0.13,12.21,0.2c6.45,0,9.99-2.36,9.99-7.19c0-4.9-3.54-6.64-9.99-6.64h-6.94c-1.75,0.01-3.51,0.04-5.26,0.06
				c0-1.31,0-2.61,0-3.92h12.96c8.44,0,14.5,2.73,14.5,10.5C478.46,591.6,474.77,595.06,469.15,596.29z"/>
		</g>
		<g>
			<path class="st1" d="M469.15,596.29c5.62-1.23,9.32-4.69,9.32-10.5c0-7.77-6.06-10.5-14.5-10.5H451c0,1.31,0,2.61,0,3.92
				c1.75-0.02,3.51-0.05,5.26-0.06h6.94c6.45,0,9.99,1.74,9.99,6.64c0,4.83-3.54,7.19-9.99,7.19c-4.06-0.07-8.14-0.13-12.21-0.2
				c0,6.61,0,13.21,0,19.82h5.26v-15.77h7.48l9.98,15.77h5.97L469.15,596.29z"/>
		</g>
	</g>
	<defs>
		
			<filter id="Adobe_OpacityMaskFilter_00000151505246427859110010000011927117240483350948_" filterUnits="userSpaceOnUse" x="232.04" y="574.79" width="214.4" height="39.96">
			
				<feColorMatrix  type="matrix" values="-1 0 0 0 1  0 -1 0 0 1  0 0 -1 0 1  0 0 0 1 0" color-interpolation-filters="sRGB" result="source"/>
			<feFlood  style="flood-color:white;flood-opacity:1" result="back"/>
			<feBlend  in="source" in2="back" mode="normal"/>
		</filter>
	</defs>
	
		<mask maskUnits="userSpaceOnUse" x="232.04" y="574.79" width="214.4" height="39.96" id="XMLID_00000042715211556379251030000012759406635286066051_">
		<g style="filter:url(#Adobe_OpacityMaskFilter_00000151505246427859110010000011927117240483350948_);">
			<line class="st6" x1="351.11" y1="581.19" x2="354.61" y2="588.05"/>
			<line class="st7" x1="349.58" y1="581.49" x2="351.64" y2="581.49"/>
			<rect x="347.7" y="585.85" class="st8" width="6.21" height="5.39"/>
			
				<rect x="348.86" y="582.84" transform="matrix(0.9104 -0.4137 0.4137 0.9104 -210.424 197.4035)" class="st9" width="3.45" height="3.45"/>
			
				<rect x="349.79" y="586.41" transform="matrix(0.8034 -0.5954 0.5954 0.8034 -283.8997 326.6281)" class="st10" width="5.85" height="13.71"/>
		</g>
	</mask>
	
		<g id="XMLID_00000171688494625915221630000006087685866867274665_" style="mask:url(#XMLID_00000042715211556379251030000012759406635286066051_);">
		<g>
			<path class="st0" d="M431.7,575.29l14.02,37.31h-5.59l-7.22-20.84c-1.49-4.17-2.82-8.26-4.15-12.57h-0.25
				c-1.28,4.32-2.6,8.39-4.09,12.57l-7.3,20.84h-5.36l14-37.31H431.7z"/>
			<path class="st0" d="M411.76,594.78c0,11.85-6.83,18.79-19.33,18.79h-10.59c0.02-1.37,0.05-2.73,0.07-4.1
				c2.28,0.37,5.74,0.72,9.89,0.2c4.42-0.55,7.76-0.97,10.54-3.57c3.98-3.72,3.97-9.28,3.97-11.32c0-9.44-4.83-14.63-14.51-14.63
				h-4.7c-1.76-0.01-3.53-0.04-5.29-0.05c0.01-1.28,0.01-2.57,0.02-3.85h10.36C404.93,576.26,411.76,582.92,411.76,594.78z"/>
			<path class="st0" d="M377.83,576.26v37.31h-5.44l-14.99-23.48l-4.47-7.71h-0.25l-1.24-0.05c0.01-0.16,0.01-0.25,0.01-0.25
				c-0.07-0.53-0.14-1.06-0.22-1.58c-0.02-0.08-0.05-0.16-0.07-0.23h2.33v-4.02h0.3l14.99,23.45l4.46,7.72h0.25
				c-0.26-3.77-0.66-7.96-0.66-11.87v-19.3H377.83z"/>
			<path class="st0" d="M353.49,576.26v4.02h-2.33c-0.3-0.92-0.78-1.74-1.46-2.42c-0.41-0.31-0.82-0.62-1.22-0.94
				c-0.04-0.02-0.08-0.05-0.13-0.07v-0.59H353.49z"/>
			<path class="st0" d="M353.34,594.04v19.53h-5c0-8.53,0-17.05,0-25.58c1.71-1.69,2.71-3.41,2.95-4.51
				c0.1-0.44,0.13-0.89,0.14-1.15l1.24,0.05C352.95,586.16,353.34,590.14,353.34,594.04z"/>
			<path class="st0" d="M351.16,580.27h-16.27v11.69c3.2,0,6.4,0,9.6,0c0.01,1.34,0.02,2.67,0.05,4.02c-3.21,0-6.44,0-9.65,0v13.56
				c3.29,0,6.56,0,9.84,0c0,1.34,0,2.69,0,4.03c-5.04,0-10.07,0-15.11,0v-37.31h18.72v0.59c0.05,0.02,0.1,0.05,0.13,0.07
				c0.41,0.31,0.82,0.62,1.22,0.94C350.38,578.53,350.86,579.35,351.16,580.27z"/>
			<polygon class="st0" points="326.26,609.54 326.26,613.57 302.91,613.57 302.91,576.26 308.19,576.26 308.19,609.54 			"/>
			<path class="st0" d="M285.54,576.26l14,37.31h-5.58l-7.22-20.84c-1.49-4.17-2.82-8.27-4.15-12.58h-0.25
				c-1.28,4.33-2.6,8.41-4.1,12.58l-7.29,20.84h-5.37l14.02-37.31H285.54z"/>
			<path class="st0" d="M260.39,605.89l2.89,2.97c-3.27,3.43-7.33,5.38-12.7,5.38c-10.31,0-18.05-7.18-18.05-19.3
				c0-12.03,7.87-19.36,18.37-19.36c5.04,0,8.97,2.21,11.39,4.6l-2.89,3.09c-2.17-2.1-4.9-3.53-8.41-3.53
				c-7.82,0-13.02,5.78-13.02,15.07c0,9.38,4.96,15.25,12.82,15.25C254.76,610.07,257.76,608.52,260.39,605.89z"/>
		</g>
		<g>
			<polygon class="st1" points="308.19,609.54 308.19,576.26 302.91,576.26 302.91,613.57 326.26,613.57 326.26,609.54 			"/>
			<path class="st1" d="M232.54,594.94c0-12.03,7.87-19.36,18.37-19.36c5.04,0,8.97,2.21,11.39,4.6l-2.89,3.09
				c-2.17-2.1-4.9-3.53-8.41-3.53c-7.82,0-13.02,5.78-13.02,15.07c0,9.38,4.96,15.25,12.82,15.25c3.96,0,6.95-1.55,9.59-4.18
				l2.89,2.97c-3.27,3.43-7.33,5.38-12.7,5.38C240.27,614.24,232.54,607.06,232.54,594.94z"/>
			<path class="st1" d="M279.6,576.26h5.94l14,37.31h-5.58l-7.22-20.84c-1.49-4.17-2.82-8.27-4.15-12.58h-0.25
				c-1.28,4.33-2.6,8.41-4.1,12.58l-7.29,20.84h-5.37L279.6,576.26z"/>
			<path class="st1" d="M351.16,580.27c0.02,0.07,0.05,0.14,0.07,0.23c0.07,0.53,0.14,1.06,0.22,1.58c0,0,0,0.1-0.01,0.25
				c-0.01,0.26-0.05,0.71-0.14,1.15c-0.24,1.1-1.24,2.82-2.95,4.51c0,8.53,0,17.05,0,25.58h5v-19.53c0-3.9-0.4-7.88-0.67-11.65h0.25
				l4.47,7.71l14.99,23.48h5.44v-37.31h-5v19.3c0,3.91,0.4,8.11,0.66,11.87h-0.25l-4.46-7.72l-14.99-23.45h-0.3"/>
			<path class="st1" d="M392.2,576.26h-10.36c-0.01,1.28-0.01,2.57-0.02,3.85c1.76,0.01,3.53,0.04,5.29,0.05h4.7
				c9.68,0,14.51,5.19,14.51,14.63c0,2.04,0.01,7.6-3.97,11.32c-2.78,2.6-6.12,3.02-10.54,3.57c-4.15,0.52-7.61,0.17-9.89-0.2
				c-0.02,1.37-0.05,2.73-0.07,4.1h10.59c12.49,0,19.33-6.94,19.33-18.79C411.76,582.92,404.93,576.26,392.2,576.26z"/>
			<path class="st1" d="M351.16,580.27h-16.27v11.69c3.2,0,6.4,0,9.6,0c0.01,1.34,0.02,2.67,0.05,4.02c-3.21,0-6.44,0-9.65,0v13.56
				c3.29,0,6.56,0,9.84,0c0,1.34,0,2.69,0,4.03c-5.04,0-10.07,0-15.11,0v-37.31h18.72h5.14v4.02H351.16z"/>
			<path class="st1" d="M425.77,575.29h5.94l14.02,37.31h-5.59l-7.22-20.84c-1.49-4.17-2.82-8.26-4.15-12.57h-0.25
				c-1.28,4.32-2.6,8.39-4.09,12.57l-7.3,20.84h-5.36L425.77,575.29z"/>
		</g>
	</g>
</g>
<rect x="298.75" y="594.48" class="st10" width="0.43" height="0.43"/>
</svg>
